<?xml version="1.0" encoding="utf-8"?>
<!-- Generator: Adobe Illustrator 19.1.0, SVG Export Plug-In . SVG Version: 6.00 Build 0)  -->
<svg version="1.1" id="icons" xmlns="http://www.w3.org/2000/svg" xmlns:xlink="http://www.w3.org/1999/xlink" x="0px" y="0px"
	 viewBox="0 0 54 58" style="enable-background:new 0 0 54 58;" xml:space="preserve">
<style type="text/css">
	.st0{fill:#F2F4F5;}
</style>
<g>
	<path class="st0" d="M27,58h27c0,0,0-4.8-2.3-9.5c-1.8-3.5-8.7-5.6-18.1-9.1v-7c0,0,2.9-2.6,2.9-7.3c1.2,0,2.3-4.7,0-5.9
		c0-0.7,3.1-6.6,2.3-10.6C37.6,2.7,21.1,2.7,20,7.4c-7,0-2.3,10.8-2.3,11.7c-2.3,1.2-1.2,5.9,0,5.9c0,4.7,2.9,6.9,2.9,6.9v7.4
		C11.1,42.9,4.1,45,2.3,48.5C0,53.2,0,58,0,58H27z"/>
</g>
</svg>
