<svg id="Layer_1" data-name="Layer 1" xmlns="http://www.w3.org/2000/svg" width="27" height="25" viewBox="0 0 171.62 152.35"><defs><style>.cls-1{fill:#009bcc;}.cls-2{fill:#fff;}</style></defs><title>Untitled-5</title><path class="cls-1" d="M138.9,153.6a4.64,4.64,0,0,1-3.1-1.19L99,119.48h-77A20.82,20.82,0,0,1,1.25,98.69V22.05a20.83,20.83,0,0,1,20.8-20.8h130a20.82,20.82,0,0,1,20.79,20.8V98.69a20.82,20.82,0,0,1-20.79,20.79h-8.52V149A4.65,4.65,0,0,1,138.9,153.6Z" transform="translate(-1.25 -1.25)"/><path class="cls-2" d="M110.21,22.81a5,5,0,0,0-3.79,1.75A5.26,5.26,0,0,0,105,28.1v0.82a31.54,31.54,0,0,0-3-2.22A27,27,0,0,0,87.1,22.38,27.78,27.78,0,0,0,76,24.63a28.53,28.53,0,0,0-15,15A28.66,28.66,0,0,0,61,61.9a28.53,28.53,0,0,0,15,15A27.76,27.76,0,0,0,87.1,79.17,27,27,0,0,0,102,74.86a31.45,31.45,0,0,0,3-2.18,21.7,21.7,0,0,1-1.09,5.73,14.36,14.36,0,0,1-3.28,5.43A15.36,15.36,0,0,1,95,87.45a23.93,23.93,0,0,1-8.53,1.36,49.41,49.41,0,0,1-17.18-3l-0.63-.23h-1.1a4.77,4.77,0,0,0-4.74,3.73l-0.11.45v0.79a4.88,4.88,0,0,0,3.2,4.57A42.06,42.06,0,0,0,76,98a69,69,0,0,0,10.75.85,32.87,32.87,0,0,0,12.57-2.22A24.54,24.54,0,0,0,113.8,81.14h0a35.21,35.21,0,0,0,1.69-11v-42a5.13,5.13,0,0,0-1.59-3.69A5.22,5.22,0,0,0,110.21,22.81ZM87.1,69.14a16.93,16.93,0,0,1-7-1.45,18.07,18.07,0,0,1-5.7-4,19.42,19.42,0,0,1-3.87-5.9,18.31,18.31,0,0,1,0-14.12,19.38,19.38,0,0,1,3.87-5.9,18.11,18.11,0,0,1,5.7-4,16.94,16.94,0,0,1,7-1.45,16.73,16.73,0,0,1,6.95,1.45,18.11,18.11,0,0,1,5.7,4,19.41,19.41,0,0,1,3.87,5.9,18.31,18.31,0,0,1,0,14.12,19.43,19.43,0,0,1-3.87,5.9,18.07,18.07,0,0,1-5.7,4A16.71,16.71,0,0,1,87.1,69.14Z" transform="translate(-1.25 -1.25)"/></svg>