<svg xmlns="http://www.w3.org/2000/svg" viewBox="0 0 368.5 97.2"><path fill="#FFF" d="M62.5 97.2c-.5 0-1-.2-1.4-.5l-16.7-15h-35c-5.2 0-9.4-4.2-9.4-9.4V37.5c0-5.2 4.2-9.4 9.4-9.4h59c5.2 0 9.4 4.2 9.4 9.4v34.8c0 5.2-4.2 9.4-9.4 9.4h-3.9v13.4c0 .8-.5 1.6-1.2 1.9-.2.1-.5.2-.8.2zM9.4 32.3c-2.9 0-5.2 2.3-5.2 5.2v34.8c0 2.9 2.3 5.2 5.2 5.2h35.7c.5 0 1 .2 1.4.5l13.8 12.3V79.6c0-1.2.9-2.1 2.1-2.1h6c2.9 0 5.2-2.3 5.2-5.2V37.5c0-2.9-2.3-5.2-5.2-5.2h-59zM134.2 5.2c0-2.4-1.8-4.2-4.3-4.2H76.1c-2.4 0-4.2 1.7-4.2 4.2s1.7 4.3 4.2 4.3h22.5V78c0 1.3.5 2.4 1.5 3.2.9.8 1.9 1.2 3 1.2 2.6 0 4.4-1.8 4.4-4.4V9.4H130c2.4 0 4.2-1.7 4.2-4.2zM197.2 0c-.8 0-2 .2-3.1 1.3s-1.3 2.3-1.3 3.1v73.8c0 1.2.5 2.3 1.5 3.1.9.8 1.9 1.2 2.9 1.2 2.5 0 4.3-1.8 4.3-4.3V4.4c0-1.1-.4-2.1-1.2-2.9-.8-1-1.9-1.5-3.1-1.5zM322.7 33.1c-2.1-2.3-4.7-4.1-7.7-5.4-4.9-2.2-11.3-2.6-17-1-2.2.6-4.4 1.5-6.4 2.6-1.6.9-3.1 1.9-4.5 3.1v-1.9c0-1.1-.4-2.1-1.2-2.9-.8-.9-1.9-1.5-3.1-1.5-.8 0-2 .2-3 1.3-1.1 1.1-1.4 2.3-1.4 3.1V78c0 .8.2 2 1.3 3.1s2.3 1.3 3.1 1.3c1.2 0 2.3-.5 3.1-1.4 1-1.1 1.2-2.2 1.2-2.9V50.7c0-2.3.5-4.4 1.4-6.4 1-2 2.3-3.8 3.9-5.4 1.6-1.5 3.6-2.8 5.7-3.7 4.4-1.8 9.5-1.7 13.3-.1 1.9.8 3.5 1.9 4.9 3.4 1.4 1.5 2.4 3.2 3.2 5.2.7 2 1.1 4.2 1.1 6.6V78c0 .7.2 1.8 1.2 3 .8.9 1.9 1.4 3.1 1.4.8 0 2-.2 3.1-1.3s1.3-2.3 1.3-3.1V50.8c0-3.5-.6-6.8-1.7-9.8-1.1-3-2.8-5.7-4.9-7.9zM364.5 27.2h-7.6V13.3c0-.7-.2-1.9-1.2-2.9-.8-.9-1.9-1.5-3.1-1.5-.8 0-2 .2-3.1 1.3s-1.3 2.3-1.3 3.1v13.9h-6.6c-2.4 0-4 1.7-4 4 0 1 .4 2 1 2.8.8.9 1.8 1.4 3 1.4h6.6v42.7c0 1.2.5 2.3 1.5 3.1.9.8 1.9 1.2 2.9 1.2 2.5 0 4.3-1.8 4.3-4.3V35.4h7.6c1.2 0 2.3-.5 3-1.4.7-.8 1-1.7 1-2.8 0-2.3-1.6-4-4-4zM259.8 34.1c-2.4-2.5-5.3-4.6-8.6-6.1-6.8-3.1-15.2-3-21.9-.1-3.4 1.5-6.3 3.5-8.8 6.1-2.5 2.6-4.4 5.6-5.7 9.1-1.4 3.5-2.1 7.2-2.1 11.2 0 4 .8 7.8 2.3 11.2 1.5 3.5 3.5 6.5 6.1 9.1 2.6 2.6 5.6 4.6 9 6.1 3.4 1.5 7.2 2.2 11.2 2.2 5 0 9.6-1.2 13.9-3.6 1.2-.7 2.3-1.4 3.4-2.2.4-.2.7-.5 1-.8.9-1.1 1.1-2.1 1.1-2.9 0-.8-.2-1.9-1.3-3s-2.2-1.3-3-1.3c-.9 0-1.8.3-2.5 1-.9.8-1.9 1.5-2.9 2.1-2.9 1.7-6 2.5-9.6 2.5-2.7 0-5.3-.5-7.6-1.6-2.4-1-4.5-2.5-6.2-4.3-1.8-1.8-3.2-3.9-4.3-6.4-.7-1.5-1.2-3.2-1.4-4.9h41.9c1 0 2-.4 2.8-1 .9-.8 1.4-1.9 1.4-3.2-.1-3.6-.8-7.2-2.3-10.5-1.5-3.2-3.5-6.2-5.9-8.7zm-37.9 15.3c.3-1.5.8-2.9 1.4-4.2 1-2.2 2.4-4.2 4-5.9 1.6-1.6 3.6-3 5.8-3.9 4.4-1.9 10.1-1.9 14.4 0 2.2.9 4.1 2.2 5.7 3.9 1.6 1.7 3 3.7 4 5.9.6 1.3 1.1 2.8 1.4 4.2h-36.7zM178.4 30c0-2.2-1.8-4-4-4s-4 1.8-4 4v4.6c-5.2-5.3-12.4-8.6-20.3-8.6-15.6 0-28.3 12.7-28.3 28.3s12.7 28.3 28.3 28.3c8 0 15.2-3.3 20.3-8.6v4.6c0 2.2 1.8 4 4 4s4-1.8 4-4v-.5V44.9 30zm-28.3 44.6c-11.2 0-20.3-9.1-20.3-20.3 0-11.2 9.1-20.3 20.3-20.3 11.2 0 20.3 9.1 20.3 20.3 0 11.2-9.1 20.3-20.3 20.3z"/><g><path fill="#FFF" d="M30.6 45c-.5 0-1 .2-1.4.6-.3.4-.5.8-.5 1.3v.3c-.3-.3-.7-.6-1.1-.8-1.6-1-3.4-1.6-5.4-1.6-1.4 0-2.8.3-4 .8-1.2.5-2.3 1.3-3.2 2.2-.9.9-1.7 2-2.2 3.2-.5 1.2-.8 2.6-.8 4s.3 2.8.8 4c.5 1.2 1.3 2.3 2.2 3.2.9.9 2 1.7 3.2 2.2 1.2.5 2.6.8 4 .8 2 0 3.8-.5 5.4-1.6.4-.2.7-.5 1.1-.8 0 .7-.2 1.4-.4 2.1-.3.8-.6 1.4-1.2 2-.5.6-1.2 1-2 1.3-.8.3-1.9.5-3.1.5-1.2 0-2.3-.1-3.3-.3-1-.2-2-.5-2.9-.8l-.2-.1h-.4c-.8 0-1.5.5-1.7 1.3v.5c0 .7.4 1.4 1.2 1.6 1.1.5 2.3.8 3.7 1 1.3.2 2.6.3 3.9.3 1.7 0 3.2-.3 4.5-.8 1.3-.5 2.4-1.3 3.3-2.2.9-.9 1.5-2.1 1.9-3.3.4-1.2.6-2.6.6-4v-15c0-.3-.1-.9-.6-1.3-.4-.4-.9-.6-1.4-.6zm-8.3 16.7c-.9 0-1.7-.2-2.5-.5-.8-.4-1.5-.8-2.1-1.4-.6-.6-1-1.3-1.4-2.1-.3-.8-.5-1.7-.5-2.5 0-.9.2-1.8.5-2.5.3-.8.8-1.5 1.4-2.1.6-.6 1.3-1.1 2.1-1.4.8-.3 1.6-.5 2.5-.5.9 0 1.7.2 2.5.5.8.4 1.5.8 2.1 1.4.6.6 1 1.3 1.4 2.1.3.8.5 1.7.5 2.5 0 .9-.2 1.8-.5 2.5-.3.8-.8 1.5-1.4 2.1-.6.6-1.3 1.1-2.1 1.4-.8.4-1.6.5-2.5.5zM64.9 45.4h-2.2V41c0-.5-.2-.9-.5-1.3-.4-.4-.8-.6-1.4-.6-.3 0-.9.1-1.3.6-.5.5-.6 1-.6 1.3v4.4H57c-1 0-1.8.8-1.8 1.8 0 .5.2.9.4 1.2.3.4.8.6 1.3.6h1.9v14.3c0 .5.2 1 .6 1.4.4.3.8.5 1.3.5 1.1 0 1.9-.8 1.9-1.9V49h2.2c.5 0 1-.2 1.3-.6.3-.3.4-.8.4-1.2.2-1.1-.6-1.8-1.6-1.8z"/><g fill="#FFF"><path d="M51.7 48.3c-.8-.9-1.8-1.6-2.9-2.1-2.3-1-5.2-1-7.4 0-1.1.5-2.1 1.2-3 2.1-.8.9-1.5 1.9-1.9 3.1-.5 1.2-.7 2.4-.7 3.8 0 1.3.3 2.6.8 3.8.5 1.2 1.2 2.2 2.1 3.1.9.9 1.9 1.6 3.1 2.1 1.2.5 2.4.7 3.8.7 1.7 0 3.3-.4 4.7-1.2.4-.2.8-.5 1.2-.8l.3-.3c.3-.4.4-.7.4-1 0-.3-.1-.6-.4-1-.4-.4-.7-.4-1-.4-.3 0-1.5.8-1.9 1-1 .6-2 .8-3.3.8-.9 0-1.8-.2-2.6-.5-.8-.4-1.5-.8-2.1-1.5-.6-.6-1.1-1.3-1.4-2.2-.2-.5-.4-1.1-.5-1.7h14c.4 0 .7-.1.9-.3.3-.3.5-.6.5-1.1 0-1.2-.3-2.4-.8-3.6-.4-1-1.1-2-1.9-2.8zm-12.8 5.1c.1-.5.3-1 .5-1.4.3-.8.8-1.4 1.4-2 .6-.6 1.2-1 2-1.3 1.5-.6 3.4-.6 4.9 0 .7.3 1.4.8 1.9 1.3.6.6 1 1.2 1.4 2 .2.5.4.9.5 1.4H38.9z"/><path d="M45.4 65.3c-1.4 0-2.8-.3-4-.8-1.2-.5-2.3-1.2-3.2-2.2-.9-.9-1.6-2-2.2-3.2-.5-1.2-.8-2.6-.8-4s.2-2.7.7-4c.5-1.2 1.2-2.3 2.1-3.3.9-.9 1.9-1.7 3.1-2.2 2.4-1 5.5-1 7.8 0 1.2.5 2.2 1.3 3.1 2.2.9.9 1.5 2 2 3.1.5 1.2.8 2.4.8 3.7 0 .6-.2 1.1-.6 1.5-.4.3-.8.5-1.3.5H39.4c.1.3.2.6.3 1 .3.8.8 1.4 1.3 2 .6.6 1.2 1 2 1.3.7.3 1.5.5 2.4.5 1.1 0 2.1-.3 3-.8.1 0 .2-.1.4-.2 1-.6 1.4-.9 1.8-.9.4 0 .9.1 1.4.6.5.5.6 1 .6 1.4 0 .3-.1.8-.5 1.3l-.4.4c-.4.3-.8.5-1.2.8-1.6.9-3.3 1.3-5.1 1.3zm-.3-19.4c-1.2 0-2.4.2-3.5.7-1.1.5-2 1.1-2.8 2-.8.8-1.4 1.8-1.8 2.9-.4 1.1-.7 2.3-.7 3.6 0 1.3.2 2.5.7 3.6.5 1.1 1.1 2.1 2 2.9.8.8 1.8 1.5 2.9 1.9 1.1.5 2.3.7 3.6.7 1.6 0 3.1-.4 4.5-1.1.4-.2.7-.4 1.1-.7.1-.1.2-.1.3-.2.2-.2.3-.5.3-.6 0-.2-.1-.5-.3-.7-.2-.2-.4-.3-.7-.3-.2 0-.9.5-1.2.7-.2.1-.3.2-.4.2-1.1.6-2.2.9-3.5.9-1 0-1.9-.2-2.8-.6-.9-.4-1.6-.9-2.3-1.6-.6-.7-1.2-1.4-1.5-2.3-.2-.6-.4-1.2-.5-1.8l-.1-.6H53c.2 0 .4-.1.6-.2.2-.2.3-.5.3-.7 0-1.2-.3-2.3-.7-3.4-.5-1.1-1.1-2-1.8-2.8-.8-.8-1.7-1.5-2.8-1.9-1.1-.3-2.3-.6-3.5-.6zm6.8 8H38.3l.1-.6c.1-.5.3-1.1.5-1.5.4-.8.9-1.5 1.5-2.1.6-.6 1.3-1.1 2.1-1.4 1.6-.7 3.7-.7 5.3 0 .8.3 1.5.8 2.1 1.4.6.6 1.1 1.3 1.5 2.1.2.5.4 1 .5 1.5v.6zm-12.4-1h11.1c-.1-.2-.2-.5-.3-.7-.3-.7-.7-1.3-1.3-1.9-.5-.5-1.1-.9-1.8-1.2-1.3-.6-3.1-.6-4.5 0-.7.3-1.3.7-1.8 1.2s-.9 1.1-1.3 1.8c.1.3 0 .6-.1.8z"/></g></g></svg>