<svg id="icons" xmlns="http://www.w3.org/2000/svg" viewBox="0 0 24 16"><style>.st0{fill:#333638}</style><path class="st0" d="M21.9 15.9H2.1c-1.1 0-2-.9-2-2V2.1c0-1.1.9-2 2-2h19.7c1.1 0 2 .9 2 2v11.8c0 1.1-.8 2-1.9 2zM2.1 1.1c-.5 0-1 .4-1 1v11.8c0 .5.4 1 1 1h19.7c.5 0 1-.4 1-1V2.1c0-.5-.4-1-1-1H2.1z"/><path class="st0" d="M12 10.5c-.1 0-.2 0-.3-.1L3.3 5c-.2-.2-.3-.5-.1-.7.1-.3.5-.3.7-.2L12 9.4l8.1-5.3c.2-.1.6-.1.7.2.2.2.1.5-.1.7l-8.4 5.4c-.1 0-.2.1-.3.1zM3.6 12.4c-.2 0-.3-.1-.4-.2-.2-.2-.1-.5.2-.7l3.5-2c.2-.1.5-.1.7.2.1.2.1.5-.2.7l-3.5 2h-.3zM20.4 12.4c-.1 0-.2 0-.2-.1l-3.5-2c-.2-.1-.3-.4-.2-.7.1-.2.4-.3.7-.2l3.5 2c.2.1.3.4.2.7-.2.3-.3.3-.5.3z"/></svg>