<svg xmlns="http://www.w3.org/2000/svg" xmlns:xlink="http://www.w3.org/1999/xlink" viewBox="0 0 30 23"><defs><path id="a" d="M0 0h30v23H0z"/></defs><clipPath id="b"><use xlink:href="#a" overflow="visible"/></clipPath><g clip-path="url(#b)"><path fill="#FFF" d="M26.5 23h-23C1.6 23 0 21.4 0 19.5v-16C0 1.6 1.6 0 3.5 0h23C28.4 0 30 1.6 30 3.5v16c0 1.9-1.6 3.5-3.5 3.5zM3.5 1C2.1 1 1 2.1 1 3.5v16C1 20.9 2.1 22 3.5 22h23c1.4 0 2.5-1.1 2.5-2.5v-16C29 2.1 27.9 1 26.5 1h-23z"/></g><g clip-path="url(#b)"><path fill="#FFF" d="M29.5 6H.5C.2 6 0 5.8 0 5.5S.2 5 .5 5h29c.3 0 .5.2.5.5s-.2.5-.5.5z"/></g><g clip-path="url(#b)"><circle fill="#FFF" cx="4" cy="3" r="1"/></g><g clip-path="url(#b)"><circle fill="#FFF" cx="7" cy="3" r="1"/></g><g clip-path="url(#b)"><circle fill="#FFF" cx="10" cy="3" r="1"/></g><g clip-path="url(#b)"><path fill="#FFF" d="M9.5 13h-5c-.3 0-.5-.2-.5-.5v-4c0-.3.2-.5.5-.5h5c.3 0 .5.2.5.5v4c0 .3-.2.5-.5.5zM5 12h4V9H5v3z"/></g><g clip-path="url(#b)"><path fill="#FFF" d="M17.5 13h-5c-.3 0-.5-.2-.5-.5v-4c0-.3.2-.5.5-.5h5c.3 0 .5.2.5.5v4c0 .3-.2.5-.5.5zM13 12h4V9h-4v3z"/></g><g clip-path="url(#b)"><path fill="#FFF" d="M25.5 13h-5c-.3 0-.5-.2-.5-.5v-4c0-.3.2-.5.5-.5h5c.3 0 .5.2.5.5v4c0 .3-.2.5-.5.5zM21 12h4V9h-4v3z"/></g><g clip-path="url(#b)"><path fill="#FFF" d="M9.5 20h-5c-.3 0-.5-.2-.5-.5v-4c0-.3.2-.5.5-.5h5c.3 0 .5.2.5.5v4c0 .3-.2.5-.5.5zM5 19h4v-3H5v3z"/></g><g clip-path="url(#b)"><path fill="#FFF" d="M17.5 20h-5c-.3 0-.5-.2-.5-.5v-4c0-.3.2-.5.5-.5h5c.3 0 .5.2.5.5v4c0 .3-.2.5-.5.5zM13 19h4v-3h-4v3z"/></g><g clip-path="url(#b)"><path fill="#FFF" d="M25.5 20h-5c-.3 0-.5-.2-.5-.5v-4c0-.3.2-.5.5-.5h5c.3 0 .5.2.5.5v4c0 .3-.2.5-.5.5zM21 19h4v-3h-4v3z"/></g></svg>