<?xml version="1.0" encoding="utf-8"?>
<!-- Generator: Adobe Illustrator 18.1.1, SVG Export Plug-In . SVG Version: 6.00 Build 0)  -->
<svg version="1.1" id="Isolation_Mode" xmlns="http://www.w3.org/2000/svg" xmlns:xlink="http://www.w3.org/1999/xlink" x="0px"
	 y="0px" viewBox="0 0 368.5 97.2" enable-background="new 0 0 368.5 97.2" xml:space="preserve">
<g>
	<g>
		<g>
			<g>
				<g>
					<path fill="#009CCC" d="M62.5,97.2c-0.5,0-1-0.2-1.4-0.5L44.4,81.7H9.4c-5.2,0-9.4-4.2-9.4-9.4V37.5c0-5.2,4.2-9.4,9.4-9.4h59
						c5.2,0,9.4,4.2,9.4,9.4v34.8c0,5.2-4.2,9.4-9.4,9.4h-3.9v13.4c0,0.8-0.5,1.6-1.2,1.9C63.1,97.1,62.8,97.2,62.5,97.2z M9.4,32.3
						c-2.9,0-5.2,2.3-5.2,5.2v34.8c0,2.9,2.3,5.2,5.2,5.2h35.7c0.5,0,1,0.2,1.4,0.5l13.8,12.3V79.6c0-1.2,0.9-2.1,2.1-2.1h6
						c2.9,0,5.2-2.3,5.2-5.2V37.5c0-2.9-2.3-5.2-5.2-5.2H9.4z"/>
				</g>
			</g>
		</g>
		<g>
			<g>
				<path fill="#009CCC" d="M134.2,5.2c0-2.4-1.8-4.2-4.3-4.2H76.1c-2.4,0-4.2,1.7-4.2,4.2c0,2.5,1.7,4.3,4.2,4.3h22.5V78
					c0,1.3,0.5,2.4,1.5,3.2c0.9,0.8,1.9,1.2,3,1.2c2.6,0,4.4-1.8,4.4-4.4V9.4h22.5C132.4,9.4,134.2,7.7,134.2,5.2z"/>
			</g>
			<g>
				<path fill="#009CCC" d="M197.2,0c-0.8,0-2,0.2-3.1,1.3c-1.1,1.1-1.3,2.3-1.3,3.1v73.8c0,1.2,0.5,2.3,1.5,3.1
					c0.9,0.8,1.9,1.2,2.9,1.2c2.5,0,4.3-1.8,4.3-4.3V4.4c0-1.1-0.4-2.1-1.2-2.9C199.5,0.5,198.4,0,197.2,0z"/>
			</g>
			<g>
				<path fill="#009CCC" d="M322.7,33.1c-2.1-2.3-4.7-4.1-7.7-5.4c-4.9-2.2-11.3-2.6-17-1c-2.2,0.6-4.4,1.5-6.4,2.6
					c-1.6,0.9-3.1,1.9-4.5,3.1v-1.9c0-1.1-0.4-2.1-1.2-2.9c-0.8-0.9-1.9-1.5-3.1-1.5c-0.8,0-2,0.2-3,1.3c-1.1,1.1-1.4,2.3-1.4,3.1
					V78c0,0.8,0.2,2,1.3,3.1c1.1,1.1,2.3,1.3,3.1,1.3c1.2,0,2.3-0.5,3.1-1.4c1-1.1,1.2-2.2,1.2-2.9V50.7c0-2.3,0.5-4.4,1.4-6.4
					c1-2,2.3-3.8,3.9-5.4c1.6-1.5,3.6-2.8,5.7-3.7c4.4-1.8,9.5-1.7,13.3-0.1c1.9,0.8,3.5,1.9,4.9,3.4c1.4,1.5,2.4,3.2,3.2,5.2
					c0.7,2,1.1,4.2,1.1,6.6V78c0,0.7,0.2,1.8,1.2,3c0.8,0.9,1.9,1.4,3.1,1.4c0.8,0,2-0.2,3.1-1.3c1.1-1.1,1.3-2.3,1.3-3.1V50.8
					c0-3.5-0.6-6.8-1.7-9.8C326.5,38,324.8,35.3,322.7,33.1z"/>
			</g>
			<g>
				<path fill="#009CCC" d="M364.5,27.2h-7.6V13.3c0-0.7-0.2-1.9-1.2-2.9c-0.8-0.9-1.9-1.5-3.1-1.5c-0.8,0-2,0.2-3.1,1.3
					c-1.1,1.1-1.3,2.3-1.3,3.1v13.9h-6.6c-2.4,0-4,1.7-4,4c0,1,0.4,2,1,2.8c0.8,0.9,1.8,1.4,3,1.4h6.6v42.7c0,1.2,0.5,2.3,1.5,3.1
					c0.9,0.8,1.9,1.2,2.9,1.2c2.5,0,4.3-1.8,4.3-4.3V35.4h7.6c1.2,0,2.3-0.5,3-1.4c0.7-0.8,1-1.7,1-2.8
					C368.5,28.9,366.9,27.2,364.5,27.2z"/>
			</g>
			<g>
				<path fill="#009CCC" d="M259.8,34.1c-2.4-2.5-5.3-4.6-8.6-6.1c-6.8-3.1-15.2-3-21.9-0.1c-3.4,1.5-6.3,3.5-8.8,6.1
					c-2.5,2.6-4.4,5.6-5.7,9.1c-1.4,3.5-2.1,7.2-2.1,11.2c0,4,0.8,7.8,2.3,11.2c1.5,3.5,3.5,6.5,6.1,9.1c2.6,2.6,5.6,4.6,9,6.1
					c3.4,1.5,7.2,2.2,11.2,2.2c5,0,9.6-1.2,13.9-3.6c1.2-0.7,2.3-1.4,3.4-2.2c0.4-0.2,0.7-0.5,1-0.8c0.9-1.1,1.1-2.1,1.1-2.9
					c0-0.8-0.2-1.9-1.3-3c-1.1-1.1-2.2-1.3-3-1.3c-0.9,0-1.8,0.3-2.5,1c0,0,0,0,0,0c-0.9,0.8-1.9,1.5-2.9,2.1
					c-2.9,1.7-6,2.5-9.6,2.5c-2.7,0-5.3-0.5-7.6-1.6c-2.4-1-4.5-2.5-6.2-4.3c-1.8-1.8-3.2-3.9-4.3-6.4c-0.7-1.5-1.2-3.2-1.4-4.9
					h41.9c1,0,2-0.4,2.8-1c0.9-0.8,1.4-1.9,1.4-3.2c-0.1-3.6-0.8-7.2-2.3-10.5C264.2,39.6,262.2,36.6,259.8,34.1z M221.9,49.4
					c0.3-1.5,0.8-2.9,1.4-4.2c1-2.2,2.4-4.2,4-5.9c1.6-1.6,3.6-3,5.8-3.9c4.4-1.9,10.1-1.9,14.4,0c2.2,0.9,4.1,2.2,5.7,3.9
					c1.6,1.7,3,3.7,4,5.9c0.6,1.3,1.1,2.8,1.4,4.2H221.9z"/>
			</g>
			<g>
				<path fill="#009CCC" d="M178.4,30c0-2.2-1.8-4-4-4s-4,1.8-4,4v4.6c-5.2-5.3-12.4-8.6-20.3-8.6c-15.6,0-28.3,12.7-28.3,28.3
					s12.7,28.3,28.3,28.3c8,0,15.2-3.3,20.3-8.6v4.6c0,2.2,1.8,4,4,4s4-1.8,4-4v-0.5c0-0.1,0-0.2,0-0.3V44.9c0-0.1,0-0.2,0-0.3V30z
					 M150.1,74.6c-11.2,0-20.3-9.1-20.3-20.3c0-11.2,9.1-20.3,20.3-20.3c11.2,0,20.3,9.1,20.3,20.3
					C170.4,65.5,161.3,74.6,150.1,74.6z"/>
			</g>
		</g>
	</g>
	<g>
		<g>
			<g>
				<path fill="#009CCC" d="M30.6,45c-0.5,0-1,0.2-1.4,0.6c-0.3,0.4-0.5,0.8-0.5,1.3v0.3c-0.3-0.3-0.7-0.6-1.1-0.8
					c-1.6-1-3.4-1.6-5.4-1.6c-1.4,0-2.8,0.3-4,0.8c-1.2,0.5-2.3,1.3-3.2,2.2c-0.9,0.9-1.7,2-2.2,3.2c-0.5,1.2-0.8,2.6-0.8,4
					c0,1.4,0.3,2.8,0.8,4c0.5,1.2,1.3,2.3,2.2,3.2c0.9,0.9,2,1.7,3.2,2.2c1.2,0.5,2.6,0.8,4,0.8c2,0,3.8-0.5,5.4-1.6
					c0.4-0.2,0.7-0.5,1.1-0.8c0,0.7-0.2,1.4-0.4,2.1c-0.3,0.8-0.6,1.4-1.2,2c-0.5,0.6-1.2,1-2,1.3c-0.8,0.3-1.9,0.5-3.1,0.5
					c-1.2,0-2.3-0.1-3.3-0.3c-1-0.2-2-0.5-2.9-0.8l-0.2-0.1h-0.4c-0.8,0-1.5,0.5-1.7,1.3l0,0.2v0.3c0,0.7,0.4,1.4,1.2,1.6
					c1.1,0.5,2.3,0.8,3.7,1c1.3,0.2,2.6,0.3,3.9,0.3c1.7,0,3.2-0.3,4.5-0.8c1.3-0.5,2.4-1.3,3.3-2.2c0.9-0.9,1.5-2.1,1.9-3.3l0,0
					c0.4-1.2,0.6-2.6,0.6-4V46.9c0-0.3-0.1-0.9-0.6-1.3C31.6,45.2,31.1,45,30.6,45z M22.3,61.7c-0.9,0-1.7-0.2-2.5-0.5
					c-0.8-0.4-1.5-0.8-2.1-1.4c-0.6-0.6-1-1.3-1.4-2.1c-0.3-0.8-0.5-1.7-0.5-2.5c0-0.9,0.2-1.8,0.5-2.5c0.3-0.8,0.8-1.5,1.4-2.1
					c0.6-0.6,1.3-1.1,2.1-1.4c0.8-0.3,1.6-0.5,2.5-0.5c0.9,0,1.7,0.2,2.5,0.5c0.8,0.4,1.5,0.8,2.1,1.4c0.6,0.6,1,1.3,1.4,2.1
					c0.3,0.8,0.5,1.7,0.5,2.5c0,0.9-0.2,1.8-0.5,2.5c-0.3,0.8-0.8,1.5-1.4,2.1c-0.6,0.6-1.3,1.1-2.1,1.4
					C24,61.6,23.2,61.7,22.3,61.7z"/>
			</g>
			<g>
				<path fill="#009CCC" d="M64.9,45.4h-2.2v-4.4c0-0.5-0.2-0.9-0.5-1.3c-0.4-0.4-0.8-0.6-1.4-0.6c-0.3,0-0.9,0.1-1.3,0.6
					c-0.5,0.5-0.6,1-0.6,1.3v4.4H57c-1,0-1.8,0.8-1.8,1.8c0,0.5,0.2,0.9,0.4,1.2c0.3,0.4,0.8,0.6,1.3,0.6h1.9v14.3
					c0,0.5,0.2,1,0.6,1.4c0.4,0.3,0.8,0.5,1.3,0.5c1.1,0,1.9-0.8,1.9-1.9V49h2.2c0.5,0,1-0.2,1.3-0.6c0.3-0.3,0.4-0.8,0.4-1.2
					C66.7,46.1,65.9,45.4,64.9,45.4z"/>
			</g>
		</g>
		<g>
			<path fill="#009CCC" d="M51.7,48.3c-0.8-0.9-1.8-1.6-2.9-2.1c-2.3-1-5.2-1-7.4,0c-1.1,0.5-2.1,1.2-3,2.1
				c-0.8,0.9-1.5,1.9-1.9,3.1c-0.5,1.2-0.7,2.4-0.7,3.8c0,1.3,0.3,2.6,0.8,3.8c0.5,1.2,1.2,2.2,2.1,3.1c0.9,0.9,1.9,1.6,3.1,2.1
				c1.2,0.5,2.4,0.7,3.8,0.7c1.7,0,3.3-0.4,4.7-1.2c0.4-0.2,0.8-0.5,1.2-0.8c0.1-0.1,0.2-0.2,0.3-0.3c0.3-0.4,0.4-0.7,0.4-1
				c0-0.3-0.1-0.6-0.4-1c-0.4-0.4-0.7-0.4-1-0.4c-0.3,0-1.5,0.8-1.9,1c-1,0.6-2,0.8-3.3,0.8c-0.9,0-1.8-0.2-2.6-0.5
				c-0.8-0.4-1.5-0.8-2.1-1.5c-0.6-0.6-1.1-1.3-1.4-2.2c-0.2-0.5-0.4-1.1-0.5-1.7H53c0.4,0,0.7-0.1,0.9-0.3c0.3-0.3,0.5-0.6,0.5-1.1
				c0-1.2-0.3-2.4-0.8-3.6C53.2,50.1,52.5,49.1,51.7,48.3z M38.9,53.4c0.1-0.5,0.3-1,0.5-1.4c0.3-0.8,0.8-1.4,1.4-2
				c0.6-0.6,1.2-1,2-1.3c1.5-0.6,3.4-0.6,4.9,0c0.7,0.3,1.4,0.8,1.9,1.3c0.6,0.6,1,1.2,1.4,2c0.2,0.5,0.4,0.9,0.5,1.4H38.9z"/>
			<path fill="#009CCC" d="M45.4,65.3c-1.4,0-2.8-0.3-4-0.8c-1.2-0.5-2.3-1.2-3.2-2.2c-0.9-0.9-1.6-2-2.2-3.2
				c-0.5-1.2-0.8-2.6-0.8-4c0-1.4,0.2-2.7,0.7-4c0.5-1.2,1.2-2.3,2.1-3.3c0.9-0.9,1.9-1.7,3.1-2.2c2.4-1,5.5-1,7.8,0
				c1.2,0.5,2.2,1.3,3.1,2.2c0.9,0.9,1.5,2,2,3.1c0.5,1.2,0.8,2.4,0.8,3.7c0,0.6-0.2,1.1-0.6,1.5c-0.4,0.3-0.8,0.5-1.3,0.5H39.4
				c0.1,0.3,0.2,0.6,0.3,1c0.3,0.8,0.8,1.4,1.3,2c0.6,0.6,1.2,1,2,1.3c0.7,0.3,1.5,0.5,2.4,0.5c1.1,0,2.1-0.3,3-0.8
				c0.1,0,0.2-0.1,0.4-0.2c1-0.6,1.4-0.9,1.8-0.9c0.4,0,0.9,0.1,1.4,0.6c0.5,0.5,0.6,1,0.6,1.4c0,0.3-0.1,0.8-0.5,1.3
				c-0.1,0.1-0.3,0.3-0.4,0.4c-0.4,0.3-0.8,0.5-1.2,0.8C48.9,64.9,47.2,65.3,45.4,65.3z M45.1,45.9c-1.2,0-2.4,0.2-3.5,0.7
				c-1.1,0.5-2,1.1-2.8,2c-0.8,0.8-1.4,1.8-1.8,2.9c-0.4,1.1-0.7,2.3-0.7,3.6c0,1.3,0.2,2.5,0.7,3.6c0.5,1.1,1.1,2.1,2,2.9
				c0.8,0.8,1.8,1.5,2.9,1.9c1.1,0.5,2.3,0.7,3.6,0.7c1.6,0,3.1-0.4,4.5-1.1c0.4-0.2,0.7-0.4,1.1-0.7c0.1-0.1,0.2-0.1,0.3-0.2
				c0.2-0.2,0.3-0.5,0.3-0.6c0-0.2-0.1-0.5-0.3-0.7c-0.2-0.2-0.4-0.3-0.7-0.3c-0.2,0-0.9,0.5-1.2,0.7c-0.2,0.1-0.3,0.2-0.4,0.2
				c-1.1,0.6-2.2,0.9-3.5,0.9c-1,0-1.9-0.2-2.8-0.6c-0.9-0.4-1.6-0.9-2.3-1.6c-0.6-0.7-1.2-1.4-1.5-2.3c-0.2-0.6-0.4-1.2-0.5-1.8
				l-0.1-0.6H53c0.2,0,0.4-0.1,0.6-0.2c0.2-0.2,0.3-0.5,0.3-0.7c0-1.2-0.3-2.3-0.7-3.4c-0.5-1.1-1.1-2-1.8-2.8
				c-0.8-0.8-1.7-1.5-2.8-1.9C47.5,46.2,46.3,45.9,45.1,45.9z M51.9,53.9H38.3l0.1-0.6c0.1-0.5,0.3-1.1,0.5-1.5
				c0.4-0.8,0.9-1.5,1.5-2.1c0.6-0.6,1.3-1.1,2.1-1.4c1.6-0.7,3.7-0.7,5.3,0c0.8,0.3,1.5,0.8,2.1,1.4c0.6,0.6,1.1,1.3,1.5,2.1
				c0.2,0.5,0.4,1,0.5,1.5L51.9,53.9z M39.5,52.9h11.1c-0.1-0.2-0.2-0.5-0.3-0.7c-0.3-0.7-0.7-1.3-1.3-1.9c-0.5-0.5-1.1-0.9-1.8-1.2
				c-1.3-0.6-3.1-0.6-4.5,0c-0.7,0.3-1.3,0.7-1.8,1.2c-0.5,0.5-0.9,1.1-1.3,1.8C39.7,52.4,39.6,52.7,39.5,52.9z"/>
		</g>
	</g>
</g>
</svg>
