<svg id="Layer_1" data-name="Layer 1" xmlns="http://www.w3.org/2000/svg" viewBox="0 0 199.83 137.39"><defs><style>.cls-1{fill:#d8d8d8;}.cls-2{fill:#333;}.cls-3{fill:#009bcc;}.cls-4{fill:#00b3dd;}.cls-5,.cls-6{fill:#fff;}.cls-6{opacity:0.41;}.cls-7{fill:#5d5d5d;opacity:0.75;}.cls-8{fill:#f2f2f2;}.cls-9{fill:#636363;}</style></defs><title>onboard-welcome</title><rect class="cls-1" y="1.18" width="199.83" height="136.08"/><rect class="cls-2" y="14.27" width="7.42" height="123.12"/><rect class="cls-3" x="7.15" y="14.27" width="27.34" height="123.12"/><rect class="cls-4" x="7.15" y="14.27" width="27.34" height="9.62"/><rect class="cls-2" x="92.58" y="-92.58" width="14.65" height="199.8" transform="translate(107.22 -92.58) rotate(90)"/><rect class="cls-5" x="43.12" y="80.2" width="45.01" height="27.83"/><rect class="cls-5" x="94.42" y="80.2" width="45.01" height="27.83"/><rect class="cls-5" x="146.26" y="80.2" width="45.01" height="27.83"/><rect class="cls-5" x="43.75" y="112.7" width="148.47" height="24.64"/><rect class="cls-5" x="43.75" y="23.53" width="148.47" height="12.41"/><polygon class="cls-6" points="43.48 76.05 71.28 54.45 98.25 71.63 132.02 46.4 151.06 62.38 155.97 54.99 163.34 59.91 173.18 57.45 180.3 66.06 192.33 54.38 192.33 75.59 43.48 76.05"/><polygon class="cls-6" points="192.23 76.05 163.95 57.14 136.74 72.18 102.84 50.09 83.75 64.08 78.81 57.62 71.42 61.92 61.58 59.77 55.41 67.3 44.33 57.07 44.33 75.65 192.23 76.05"/><rect class="cls-7" x="48.35" y="28.47" width="61.17" height="2.61" rx="1" ry="1"/><rect class="cls-7" x="48.35" y="85.81" width="36.33" height="1.84" rx="0.79" ry="0.79"/><rect class="cls-7" x="48.35" y="91.35" width="36.33" height="1.84" rx="0.79" ry="0.79"/><rect class="cls-7" x="48.35" y="96.88" width="36.33" height="1.84" rx="0.79" ry="0.79"/><rect class="cls-7" x="48.35" y="101.8" width="36.33" height="1.84" rx="0.79" ry="0.79"/><rect class="cls-7" x="99.39" y="85.81" width="36.33" height="1.84" rx="0.79" ry="0.79"/><rect class="cls-7" x="99.39" y="91.35" width="36.33" height="1.84" rx="0.79" ry="0.79"/><rect class="cls-7" x="99.39" y="96.88" width="36.33" height="1.84" rx="0.79" ry="0.79"/><rect class="cls-7" x="99.39" y="101.8" width="36.33" height="1.84" rx="0.79" ry="0.79"/><rect class="cls-7" x="150.43" y="85.81" width="36.33" height="1.84" rx="0.79" ry="0.79"/><rect class="cls-7" x="150.43" y="91.35" width="36.33" height="1.84" rx="0.79" ry="0.79"/><rect class="cls-7" x="150.43" y="96.88" width="36.33" height="1.84" rx="0.79" ry="0.79"/><rect class="cls-7" x="150.43" y="101.8" width="36.33" height="1.84" rx="0.79" ry="0.79"/><circle class="cls-3" cx="186.09" cy="29.78" r="3.07"/><circle class="cls-5" cx="112.27" cy="130.23" r="2.35"/><circle class="cls-5" cx="119.31" cy="130.23" r="2.35"/><circle class="cls-5" cx="126.35" cy="130.23" r="2.35"/><rect class="cls-8" x="47.47" y="116.24" width="141.65" height="7.83"/><rect class="cls-9" y="8.9" width="199.83" height="5.83"/></svg>