<?xml version="1.0" encoding="utf-8"?>
<!-- Generator: Adobe Illustrator 18.1.1, SVG Export Plug-In . SVG Version: 6.00 Build 0)  -->
<svg version="1.1" id="Layer_1" xmlns="http://www.w3.org/2000/svg" xmlns:xlink="http://www.w3.org/1999/xlink" x="0px" y="0px"
	 viewBox="0 0 16.1 13.4" enable-background="new 0 0 16.1 13.4" xml:space="preserve">
<path d="M15.8,0c-0.1,0-0.3,0.1-0.3,0.3v0.5l-15,4.6V5c0-0.1-0.1-0.3-0.3-0.3S0,4.9,0,5v0.7v2v0.7c0,0.1,0.1,0.3,0.3,0.3
	s0.3-0.1,0.3-0.3V8.1l2.7,0.8v1.6c0,1.8,1.5,2.7,2.8,2.7c1.5,0,2.5-1,2.6-2.6l7,2.1v0.5c0,0.1,0.1,0.3,0.3,0.3
	c0.1,0,0.3-0.1,0.3-0.3v-0.7V0.9V0.3C16.1,0.1,16,0,15.8,0z M8,10.4c0,1.3-0.8,2.2-2,2.2c-1.1,0-2.3-0.7-2.3-2.2V9L8,10.4L8,10.4z"
	/>
</svg>
