<?xml version="1.0" encoding="utf-8"?>
<!-- Generator: Adobe Illustrator 18.1.1, SVG Export Plug-In . SVG Version: 6.00 Build 0)  -->
<svg version="1.1" id="Layer_1" xmlns="http://www.w3.org/2000/svg" xmlns:xlink="http://www.w3.org/1999/xlink" x="0px" y="0px"
	 viewBox="0 0 13.9 13.8" enable-background="new 0 0 13.9 13.8" xml:space="preserve">
<g>
	<path d="M13.7,11c-1.1-0.3-1.7-0.7-1.7-1.4V6.3c0-2.2-1.2-4-3.2-4.8C8.7,0.6,7.9,0,6.9,0C6,0,5.2,0.7,5,1.5
		C3.1,2.3,1.8,4.2,1.8,6.3v3.2c0,0.7-0.5,1.1-1.7,1.4C0.1,11,0,11.1,0,11.2c0,0.1,0.1,0.2,0.2,0.2h13.4c0.1,0,0.2-0.1,0.2-0.2
		C13.9,11.1,13.8,11,13.7,11z"/>
	<path d="M8.3,11.9H5.5c-0.1,0-0.2,0.1-0.2,0.2c0,1.1,0.5,1.6,1.6,1.6s1.6-0.5,1.6-1.6C8.5,12.1,8.4,11.9,8.3,11.9z"/>
</g>
</svg>
