<?xml version="1.0" encoding="utf-8"?>
<!-- Generator: Adobe Illustrator 19.1.0, SVG Export Plug-In . SVG Version: 6.00 Build 0)  -->
<svg version="1.1" id="Layer_1" xmlns="http://www.w3.org/2000/svg" xmlns:xlink="http://www.w3.org/1999/xlink" x="0px" y="0px"
	 viewBox="14 -14 48 48" style="enable-background:new 14 -14 48 48;" xml:space="preserve">
<style type="text/css">
	.st0{fill:#231F20;}
</style>
<g>
	<g>
		<path class="st0" d="M51,34c-6.1,0-11-4.9-11-11s4.9-11,11-11s11,4.9,11,11S57.1,34,51,34z M51,14c-5,0-9,4-9,9s4,9,9,9s9-4,9-9
			S56,14,51,14z"/>
	</g>
	<g>
		<path class="st0" d="M51,29c-0.6,0-1-0.4-1-1V18c0-0.6,0.4-1,1-1s1,0.4,1,1v10C52,28.6,51.6,29,51,29z"/>
	</g>
	<g>
		<path class="st0" d="M56,24H46c-0.6,0-1-0.4-1-1s0.4-1,1-1h10c0.6,0,1,0.4,1,1S56.6,24,56,24z"/>
	</g>
	<g>
		<path class="st0" d="M36,26H15c-0.3,0-0.5-0.1-0.7-0.3S14,25.2,14,25c0-0.2,0.1-5.5,1-8.4c0.8-2.3,4.5-3.6,9.3-5.1
			c1.2-0.4,2.5-0.8,3.7-1.2V6.5c-1-0.6-2.8-2.3-3-5.9c-0.8-0.5-1.2-1.5-1.2-2.7c0-0.7,0.1-1.3,0.4-1.8c0.2-0.3,0.4-0.6,0.6-0.7
			c-0.4-1.6-1.2-4.3,0.2-5.7c0.6-0.6,1.4-0.9,2.4-0.8c1.2-2.1,4.4-2.8,7.1-2.8c3.1,0,6.8,1,7.5,3.7c0.6,2.2-0.2,4.4-0.7,5.6
			c0.6,0.5,1,1.4,1,2.6c0,1.3-0.5,2.3-1.2,2.8c-0.2,3.6-2,5.2-3,5.9v3.7l0.7,0.2c1.2,0.4,2.4,0.9,3.5,1.2l-0.6,1.9
			c-1.2-0.4-2.4-0.8-3.6-1.2l-1.3-0.5c-0.4-0.1-0.7-0.5-0.7-0.9v-5c0-0.4,0.2-0.8,0.6-0.9c0.1,0,2.4-1.1,2.4-5.1c0-0.6,0.4-1,1-1
			c0,0,0.2-0.4,0.2-1.1c0-0.6-0.2-1-0.3-1.1c-0.6,0-0.9-0.4-0.9-1c0-0.3,0.1-0.6,0.3-1.1c0.4-1.1,1.1-2.8,0.7-4.5
			c-0.3-1.3-2.7-2.2-5.5-2.2c-2.9,0-5.2,0.9-5.5,2.1c-0.1,0.5-0.7,0.9-1.2,0.8c-0.7-0.1-1.1-0.1-1.3,0.1c-0.6,0.7,0.1,3.1,0.3,3.9
			c0.1,0.5,0.2,0.7,0.2,1c0,0.6-0.4,1-1,1c0,0-0.2,0.4-0.2,1s0.2,1,0.3,1c0.6,0,0.9,0.4,0.9,1c0,4,2.3,5,2.4,5.1
			C29.7,5.1,30,5.5,30,5.9v5c0,0.4-0.3,0.8-0.6,0.9c-1.4,0.5-3,1-4.4,1.5c-3.5,1.2-7.6,2.5-8,3.9c-0.6,1.9-0.8,5.2-0.9,6.8h20V26z"
			/>
	</g>
</g>
</svg>
