<?xml version="1.0" encoding="utf-8"?>
<!-- Generator: Adobe Illustrator 19.1.0, SVG Export Plug-In . SVG Version: 6.00 Build 0)  -->
<svg version="1.1" id="icons" xmlns="http://www.w3.org/2000/svg" xmlns:xlink="http://www.w3.org/1999/xlink" x="0px" y="0px"
	 viewBox="0 0 24 24" style="enable-background:new 0 0 24 24;" xml:space="preserve">
<style type="text/css">
	.st0{fill:#231F20;}
</style>
<g>
	<g>
		<path class="st0" d="M23.4,23.9H0.6c-0.3,0-0.5-0.2-0.5-0.5V2.6c0-0.3,0.2-0.5,0.5-0.5h4c0.3,0,0.5,0.2,0.5,0.5S4.8,3.1,4.6,3.1
			H1.1v19.8h21.8V3.1h-3.5c-0.3,0-0.5-0.2-0.5-0.5s0.2-0.5,0.5-0.5h4c0.3,0,0.5,0.2,0.5,0.5v20.8C23.9,23.7,23.7,23.9,23.4,23.9z"/>
	</g>
	<g>
		<path class="st0" d="M7.5,5.1h-3c-0.3,0-0.5-0.2-0.5-0.5v-4c0-0.3,0.2-0.5,0.5-0.5h3C7.8,0.1,8,0.3,8,0.6v4C8,4.8,7.8,5.1,7.5,5.1
			z M5.1,4.1h2v-3h-2V4.1z"/>
	</g>
	<g>
		<path class="st0" d="M19.4,5.1h-3c-0.3,0-0.5-0.2-0.5-0.5v-4c0-0.3,0.2-0.5,0.5-0.5h3c0.3,0,0.5,0.2,0.5,0.5v4
			C19.9,4.8,19.7,5.1,19.4,5.1z M17,4.1h2v-3h-2V4.1z"/>
	</g>
	<g>
		<path class="st0" d="M16.5,3.1H7.5c-0.3,0-0.5-0.2-0.5-0.5s0.2-0.5,0.5-0.5h8.9c0.3,0,0.5,0.2,0.5,0.5S16.7,3.1,16.5,3.1z"/>
	</g>
	<g>
		<path class="st0" d="M23.4,8H0.6C0.3,8,0.1,7.8,0.1,7.5s0.2-0.5,0.5-0.5h22.8c0.3,0,0.5,0.2,0.5,0.5S23.7,8,23.4,8z"/>
	</g>
	<g>
		<g>
			<path class="st0" d="M9.5,19.9c-0.3,0-0.5-0.2-0.5-0.5v-6.7l-1.1,1.1c-0.2,0.2-0.5,0.2-0.7,0s-0.2-0.5,0-0.7l2-2
				C9.3,11,9.5,11,9.7,11c0.2,0.1,0.3,0.3,0.3,0.5v7.9C10,19.7,9.8,19.9,9.5,19.9z"/>
		</g>
		<g>
			<path class="st0" d="M11.5,19.9h-4c-0.3,0-0.5-0.2-0.5-0.5s0.2-0.5,0.5-0.5h4c0.3,0,0.5,0.2,0.5,0.5S11.8,19.9,11.5,19.9z"/>
		</g>
	</g>
	<g>
		<g>
			<path class="st0" d="M14,19.9c-0.1,0-0.1,0-0.2,0c-0.3-0.1-0.4-0.4-0.3-0.6l2.7-7.3h-3.7v0.5c0,0.3-0.2,0.5-0.5,0.5
				s-0.5-0.2-0.5-0.5v-1c0-0.3,0.2-0.5,0.5-0.5h5c0.2,0,0.3,0.1,0.4,0.2c0.1,0.1,0.1,0.3,0.1,0.5l-3,7.9
				C14.4,19.8,14.2,19.9,14,19.9z"/>
		</g>
		<g>
			<path class="st0" d="M16.5,16h-3c-0.3,0-0.5-0.2-0.5-0.5s0.2-0.5,0.5-0.5h3c0.3,0,0.5,0.2,0.5,0.5S16.7,16,16.5,16z"/>
		</g>
	</g>
</g>
</svg>
