<?xml version="1.0" encoding="utf-8"?>
<!-- Generator: Adobe Illustrator 18.1.1, SVG Export Plug-In . SVG Version: 6.00 Build 0)  -->
<svg version="1.1" id="Layer_1" xmlns="http://www.w3.org/2000/svg" xmlns:xlink="http://www.w3.org/1999/xlink" x="0px" y="0px"
	 viewBox="0 0 60 49.9" enable-background="new 0 0 60 49.9" xml:space="preserve">
<g>
	<path fill="#231F20" d="M28.7,49.9c-0.1,0-0.3,0-0.4-0.1C22,46.7,18,39.7,18,31.9V10.7c0-0.6,0.4-1,1-1s1,0.4,1,1v21.2
		c0,6.9,3.7,13.4,9.2,16.1c0.5,0.2,0.7,0.8,0.4,1.3C29.5,49.7,29.1,49.9,28.7,49.9z"/>
</g>
<g>
	<path fill="#231F20" d="M55,26.9h-2c-0.6,0-1-0.4-1-1v-10c0-0.6,0.4-1,1-1h2c2.7,0,5,2.3,5,5v2.5C60,24.9,57.8,26.9,55,26.9z
		 M54,24.9h1c1.5,0,3-0.9,3-2.5v-2.5c0-1.5-1.5-3-3-3h-1V24.9z"/>
</g>
<g>
	<path fill="#231F20" d="M53,42.3c-0.2,0-0.3,0-0.4-0.1l-1.8-0.9C41.1,36.5,32,31.9,11,31.9H8c-4.7,0-8-3.3-8-8v-5c0-5,3.5-9,8-9h3
		c21.9,0,31.1-4.6,41-9.5l0.6-0.3c0.3-0.2,0.7-0.1,1,0C53.8,0.3,54,0.7,54,1v40.3c0,0.3-0.2,0.7-0.5,0.8
		C53.4,42.3,53.2,42.3,53,42.3z M8,11.9c-3.8,0-6,3.6-6,7v5c0,3.6,2.4,6,6,6h3c21.4,0,31.2,4.9,40.7,9.6l0.3,0.2V2.6
		c-9.7,4.8-19.3,9.3-41,9.3H8z"/>
</g>
<g>
	<rect y="0" fill="none" width="60" height="49.9"/>
</g>
</svg>
