<?xml version="1.0" encoding="utf-8"?>
<!-- Generator: Adobe Illustrator 19.1.0, SVG Export Plug-In . SVG Version: 6.00 Build 0)  -->
<svg version="1.1" id="icons" xmlns="http://www.w3.org/2000/svg" xmlns:xlink="http://www.w3.org/1999/xlink" x="0px" y="0px"
	 viewBox="0 0 30 30" style="enable-background:new 0 0 30 30;" xml:space="preserve">
<style type="text/css">
	.st0{fill:#231F20;}
</style>
<g>
	<path class="st0" d="M15,29.5C7,29.5,0.5,23,0.5,15S7,0.5,15,0.5S29.5,7,29.5,15S23,29.5,15,29.5z M15,2.5C8.1,2.5,2.5,8.1,2.5,15
		S8.1,27.5,15,27.5S27.5,21.9,27.5,15S21.9,2.5,15,2.5z"/>
</g>
<g>
	<path class="st0" d="M9.2,21.8c-0.3,0-0.5-0.1-0.7-0.3c-0.4-0.4-0.4-1,0-1.4L20.1,8.5c0.4-0.4,1-0.4,1.4,0s0.4,1,0,1.4L9.9,21.5
		C9.7,21.7,9.5,21.8,9.2,21.8z"/>
</g>
<g>
	<path class="st0" d="M20.8,21.8c-0.3,0-0.5-0.1-0.7-0.3L8.5,9.9c-0.4-0.4-0.4-1,0-1.4s1-0.4,1.4,0l11.6,11.6c0.4,0.4,0.4,1,0,1.4
		C21.3,21.7,21,21.8,20.8,21.8z"/>
</g>
</svg>
