<svg id="Isolation_Mode" data-name="Isolation Mode" xmlns="http://www.w3.org/2000/svg" viewBox="0 0 24 14"><defs><style>.cls-1{fill:#231f20;}</style></defs><title>cloud</title><path class="cls-1" d="M19.5,14a4.45,4.45,0,0,1-3.28-1.42,7.11,7.11,0,0,1-7.68.5,5.44,5.44,0,0,1-3,.92A5.5,5.5,0,1,1,6.23,3,7,7,0,0,1,12,0a7,7,0,0,1,6.73,5.07A4.5,4.5,0,1,1,19.5,14Zm-3.21-2.62h0.05a0.5,0.5,0,0,1,.35.2A3.47,3.47,0,0,0,19.5,13a3.5,3.5,0,1,0-1-6.85,0.5,0.5,0,0,1-.4-0.05,0.5,0.5,0,0,1-.23-0.33,6,6,0,0,0-11-1.91,0.5,0.5,0,0,1-.52.23A4.5,4.5,0,1,0,5.5,13a4.45,4.45,0,0,0,2.71-.92,0.5,0.5,0,0,1,.57,0A6.1,6.1,0,0,0,16,11.5,0.5,0.5,0,0,1,16.29,11.38Z"/><path class="cls-1" d="M15.5,4.75H8.42a0.5,0.5,0,0,1,0-1H15.5A0.5,0.5,0,0,1,15.5,4.75Z"/><path class="cls-1" d="M10.08,7H3.42a0.5,0.5,0,0,1,0-1h6.67A0.5,0.5,0,0,1,10.08,7Z"/><path class="cls-1" d="M14.58,9.25H5.92a0.5,0.5,0,0,1,0-1h8.67A0.5,0.5,0,0,1,14.58,9.25Z"/><path class="cls-1" d="M15.5,7H12.75a0.5,0.5,0,0,1,0-1H15.5A0.5,0.5,0,0,1,15.5,7Z"/><path class="cls-1" d="M20.92,10.25H17.08a0.5,0.5,0,0,1,0-1h3.83A0.5,0.5,0,0,1,20.92,10.25Z"/><path class="cls-1" d="M9,11.25H3.42a0.5,0.5,0,0,1,0-1H9A0.5,0.5,0,0,1,9,11.25Z"/><path class="cls-1" d="M14.13,11.25H11.5a0.5,0.5,0,0,1,0-1h2.63A0.5,0.5,0,0,1,14.13,11.25Z"/></svg>