<?xml version="1.0" encoding="utf-8"?>
<!-- Generator: Adobe Illustrator 18.1.1, SVG Export Plug-In . SVG Version: 6.00 Build 0)  -->
<svg version="1.1" id="Layer_1" xmlns="http://www.w3.org/2000/svg" xmlns:xlink="http://www.w3.org/1999/xlink" x="0px" y="0px"
	 viewBox="0 0 11.5 11.5" enable-background="new 0 0 11.5 11.5" xml:space="preserve">
<path d="M11.3,4.8H9.9C9.8,4.4,9.7,4,9.5,3.7l1-1c0,0,0.1-0.1,0.1-0.2s0-0.1-0.1-0.2L9.1,1C9,0.9,8.9,0.9,8.8,1l-1,1
	C7.5,1.8,7.1,1.7,6.7,1.6V0.2C6.7,0.1,6.6,0,6.5,0H5C4.9,0,4.8,0.1,4.8,0.2v1.4C4.4,1.7,4,1.8,3.7,2l-1-1C2.6,0.9,2.5,0.9,2.4,1
	L1,2.4C0.9,2.5,0.9,2.6,1,2.7l1,1C1.8,4,1.7,4.4,1.6,4.8H0.2C0.1,4.8,0,4.9,0,5v1.4c0,0.1,0.1,0.2,0.2,0.2h1.4
	C1.7,7.1,1.8,7.5,2,7.8l-1,1c0,0-0.1,0.1-0.1,0.2C0.9,9,1,9.1,1,9.1l1.4,1.4c0.1,0.1,0.2,0.1,0.3,0l1-1C4,9.7,4.4,9.8,4.8,9.9v1.4
	c0,0.1,0.1,0.2,0.2,0.2h1.4c0.1,0,0.2-0.1,0.2-0.2V9.9c0.4-0.1,0.8-0.2,1.1-0.4l1,1c0.1,0.1,0.2,0.1,0.3,0l1.4-1.4
	c0.1-0.1,0.1-0.2,0-0.3l-1-1c0.2-0.3,0.3-0.7,0.4-1.1h1.4c0.1,0,0.2-0.1,0.2-0.2V5C11.5,4.9,11.4,4.8,11.3,4.8z M5.7,7.7
	c-1.1,0-1.9-0.9-1.9-1.9s0.9-1.9,1.9-1.9s1.9,0.9,1.9,1.9S6.8,7.7,5.7,7.7z"/>
</svg>
