<?xml version="1.0" encoding="utf-8"?>
<!-- Generator: Adobe Illustrator 18.1.1, SVG Export Plug-In . SVG Version: 6.00 Build 0)  -->
<svg version="1.1" id="Layer_1" xmlns="http://www.w3.org/2000/svg" xmlns:xlink="http://www.w3.org/1999/xlink" x="0px" y="0px"
	 viewBox="0 0 60 56" enable-background="new 0 0 60 56" xml:space="preserve">
<g>
	<path d="M55,56H5c-2.8,0-5-2.2-5-5v-2c0-0.6,0.4-1,1-1h58c0.6,0,1,0.4,1,1v2C60,53.8,57.8,56,55,56z M2,50v1c0,1.7,1.3,3,3,3h50
		c1.7,0,3-1.3,3-3v-1H2z"/>
</g>
<g>
	<path d="M59,50H1c-0.3,0-0.6-0.2-0.8-0.4C0,49.3-0.1,49,0.1,48.6l6-16C6.2,32.3,6.6,32,7,32h46c0.4,0,0.8,0.3,0.9,0.6l6,16
		c0.1,0.3,0.1,0.7-0.1,0.9C59.6,49.8,59.3,50,59,50z M2.4,48h55.1l-5.2-14H7.7L2.4,48z"/>
</g>
<g>
	<path d="M53,34H7c-0.6,0-1-0.4-1-1V5c0-2.8,2.2-5,5-5h38c2.8,0,5,2.2,5,5v28C54,33.6,53.6,34,53,34z M8,32h44V5c0-1.7-1.3-3-3-3H11
		C9.3,2,8,3.3,8,5V32z"/>
</g>
<g>
	<path d="M50,30H10V4h40V30z M12,28h36V6H12V28z"/>
</g>
<g>
	<path d="M41.4,46H18.6l2.7-8h17.4L41.4,46z M21.4,44h17.2l-1.3-4H22.7L21.4,44z"/>
</g>
<g>
	<rect fill="none" width="60" height="56"/>
</g>
</svg>
