<svg id="Isolation_Mode" data-name="Isolation Mode" xmlns="http://www.w3.org/2000/svg" viewBox="0 0 24 20"><defs><style>.cls-1{fill:#231f20;}</style></defs><title>custom-fields</title><path class="cls-1" d="M12,14a0.49,0.49,0,0,1-.2,0L0.3,9A0.5,0.5,0,1,1,.7,8L12,13,23.3,8a0.5,0.5,0,1,1,.4.92L12.2,14A0.49,0.49,0,0,1,12,14Z"/><path class="cls-1" d="M12,17a0.49,0.49,0,0,1-.2,0L0.3,12A0.5,0.5,0,1,1,.7,11L12,16,23.3,11a0.5,0.5,0,1,1,.4.92L12.2,17A0.49,0.49,0,0,1,12,17Z"/><path class="cls-1" d="M12,20a0.49,0.49,0,0,1-.2,0L0.3,15A0.5,0.5,0,1,1,.7,14L12,19,23.3,14a0.5,0.5,0,1,1,.4.92L12.2,20A0.49,0.49,0,0,1,12,20Z"/><path class="cls-1" d="M12,11a0.49,0.49,0,0,1-.2,0L0.3,6A0.5,0.5,0,0,1,.3,5L11.8,0a0.5,0.5,0,0,1,.4,0L23.7,5a0.5,0.5,0,0,1,0,.92L12.2,11A0.49,0.49,0,0,1,12,11ZM1.75,5.5L12,10,22.25,5.5,12,1Z"/></svg>