<?xml version="1.0" encoding="utf-8"?>
<!-- Generator: Adobe Illustrator 19.1.0, SVG Export Plug-In . SVG Version: 6.00 Build 0)  -->
<svg version="1.1" id="Layer_1" xmlns="http://www.w3.org/2000/svg" xmlns:xlink="http://www.w3.org/1999/xlink" x="0px" y="0px"
	 viewBox="4 -2.7 28.7 24.7" style="enable-background:new 4 -2.7 28.7 24.7;" xml:space="preserve">
<g>
	<path d="M9.1,15c-0.6,0-2.5-0.1-3.8-1.3c-0.9-0.8-1.3-2-1.3-3.5c0-1.6,0.7-3,1.9-3.9c1-0.8,2.3-1.2,3.6-1.1
		c0.5-4.5,4.3-7.9,8.9-7.9c3.3,0,6.4,1.9,7.9,4.8c1.7,0,3.2,0.7,4.4,1.8c1.3,1.2,2,2.9,2,4.7c0,5.7-5.8,6.3-5.9,6.3h-1.9
		c-0.3,0-0.5-0.2-0.5-0.5s0.2-0.5,0.5-0.5h1.8c0.2,0,4.9-0.5,4.9-5.3c0-1.5-0.6-2.9-1.7-4c-1.1-1-2.5-1.6-4-1.5h-0.3l-0.1-0.3
		c-1.3-2.7-4.1-4.5-7.1-4.5c-4.2,0-7.7,3.3-7.9,7.5v0.6L9.9,6.2C8.7,6,7.4,6.3,6.5,7C5.5,7.8,5,8.9,5,10.2c0,1.1,0.3,2.1,1,2.7
		C7.3,14.1,9.2,14,9.3,14h2.4c0.3,0,0.5,0.2,0.5,0.5S12,15,11.7,15H9.3C9.3,15,9.2,15,9.1,15z"/>
</g>
<g>
	<path d="M19,8.8v12.7c0,0.3-0.2,0.5-0.5,0.5S18,21.8,18,21.5V8.8c0-0.3,0.2-0.5,0.5-0.5S19,8.6,19,8.8z"/>
</g>
<g>
	<path d="M22.9,17.1c0.2,0.2,0.2,0.5,0,0.7l-4,4c-0.2,0.2-0.5,0.2-0.7,0l-4-4c-0.2-0.2-0.2-0.5,0-0.7s0.5-0.2,0.7,0l3.6,3.6l3.6-3.6
		c0.1-0.1,0.3-0.1,0.4-0.1S22.8,17.1,22.9,17.1z"/>
</g>
</svg>
