<?xml version="1.0" encoding="utf-8"?>
<!-- Generator: Adobe Illustrator 19.1.0, SVG Export Plug-In . SVG Version: 6.00 Build 0)  -->
<svg version="1.1" id="icons" xmlns="http://www.w3.org/2000/svg" xmlns:xlink="http://www.w3.org/1999/xlink" x="0px" y="0px"
	 viewBox="0 0 60.5 57.1" style="enable-background:new 0 0 60.5 57.1;" xml:space="preserve">
<style type="text/css">
	.st0{fill:#231F20;}
</style>
<g>
	<g>
		<path class="st0" d="M30.3,57.1L11.9,44.9v-6.4l7.3,4.3l11.1-8.5l11.3,8.5l7.2-4.2V45L30.3,57.1z M13.9,43.9l16.4,10.9l16.5-10.8
			v-1.8l-5.3,3.1l-11.2-8.4l-11,8.4L13.9,42V43.9z"/>
	</g>
	<g>
		<path class="st0" d="M47.9,22.2L28.5,11L41.9,0l18.6,11.8L47.9,22.2z M32,10.7l15.6,9.1l9.4-7.8L42,2.5L32,10.7z"/>
	</g>
	<g>
		<path class="st0" d="M19.2,41.7L0,30.5l13.7-10.3L32,31.9L19.2,41.7z M3.6,30.3l15.4,9l9.5-7.3l-14.8-9.4L3.6,30.3z"/>
	</g>
	<g>
		<path class="st0" d="M13.7,22.6L0.1,12.3L19.2,0L32,11L13.7,22.6z M3.5,12.5l10.2,7.7l14.8-9.4L19,2.5L3.5,12.5z"/>
	</g>
	<g>
		<path class="st0" d="M41.6,41.7l-13.1-9.9l19.3-12.1l12.7,10.8L41.6,41.7z M32.1,32l9.7,7.3l15.3-9.1l-9.4-8L32.1,32z"/>
	</g>
</g>
</svg>
