<?xml version="1.0" encoding="utf-8"?>
<!-- Generator: Adobe Illustrator 19.1.0, SVG Export Plug-In . SVG Version: 6.00 Build 0)  -->
<svg version="1.1" id="icons" xmlns="http://www.w3.org/2000/svg" xmlns:xlink="http://www.w3.org/1999/xlink" x="0px" y="0px"
	 viewBox="0 0 24 17.1" style="enable-background:new 0 0 24 17.1;" xml:space="preserve">
<style type="text/css">
	.st0{fill:#231F20;}
</style>
<g>
	<g>
		<path class="st0" d="M12,13c-0.1,0-0.2,0-0.2-0.1L0.4,7C0.2,6.9,0.1,6.7,0.1,6.5c0-0.2,0.1-0.4,0.3-0.4l11.4-5.9
			c0.1-0.1,0.3-0.1,0.5,0l11.4,5.9c0.2,0.1,0.3,0.3,0.3,0.4c0,0.2-0.1,0.4-0.3,0.4l-11.4,5.9C12.2,12.9,12.1,13,12,13z M1.7,6.5
			L12,11.9l10.3-5.4L12,1.1L1.7,6.5z"/>
	</g>
	<g>
		<path class="st0" d="M12,16.4c-1.4,0-2.7-0.3-3.6-0.5c-0.3-0.1-0.4-0.3-0.3-0.6c0.1-0.3,0.3-0.4,0.6-0.3c0.9,0.2,2,0.5,3.3,0.5
			c4.5,0,6.9-2.9,6.9-4.4V8.5c0-0.3,0.2-0.5,0.5-0.5s0.5,0.2,0.5,0.5V11C19.9,13.2,16.9,16.4,12,16.4z"/>
	</g>
	<g>
		<path class="st0" d="M4.6,13.9c-0.3,0-0.5-0.2-0.5-0.5V8.6c0-0.2,0.1-0.4,0.4-0.5L11.9,6c0.3-0.1,0.5,0.1,0.6,0.3
			c0.1,0.3-0.1,0.5-0.3,0.6L5.1,9v4.5C5.1,13.7,4.8,13.9,4.6,13.9z"/>
	</g>
	<g>
		<path class="st0" d="M4.6,17c-1.1,0-2-0.9-2-2s0.9-2,2-2s2,0.9,2,2S5.7,17,4.6,17z M4.6,14c-0.5,0-1,0.4-1,1c0,0.5,0.4,1,1,1
			s1-0.4,1-1C5.6,14.5,5.1,14,4.6,14z"/>
	</g>
</g>
</svg>
