<?xml version="1.0" encoding="utf-8"?>
<!-- Generator: Adobe Illustrator 19.1.0, SVG Export Plug-In . SVG Version: 6.00 Build 0)  -->
<svg version="1.1" id="icons" xmlns="http://www.w3.org/2000/svg" xmlns:xlink="http://www.w3.org/1999/xlink" x="0px" y="0px"
	 viewBox="0 0 59.8 52.2" style="enable-background:new 0 0 59.8 52.2;" xml:space="preserve">
<style type="text/css">
	.st0{fill:#231F20;}
</style>
<g>
	<g>
		<path class="st0" d="M10.1,51.9C10.1,51.9,10.1,51.9,10.1,51.9c-0.4,0-0.7-0.2-0.9-0.5L0.5,35.4c-0.2-0.3-0.2-0.7,0-1L20.1,0.8
			c0.2-0.3,0.5-0.5,0.9-0.5c0,0,0,0,0,0c0.4,0,0.7,0.2,0.9,0.5l8.9,15.6c0.2,0.3,0.2,0.7,0,1L10.9,51.4
			C10.8,51.7,10.4,51.9,10.1,51.9z M2.5,35l7.6,13.9L28.7,17L20.9,3.3L2.5,35z"/>
	</g>
	<g>
		<g>
			<path class="st0" d="M10.1,51.9c-0.4,0-0.7-0.2-0.9-0.5c-0.2-0.3-0.2-0.7,0-1l9.3-16c0.2-0.3,0.5-0.5,0.9-0.5l39.1-0.1
				c0,0,0,0,0,0c0.4,0,0.7,0.2,0.9,0.5c0.2,0.3,0.2,0.7,0,1l-9.4,16.1c-0.2,0.3-0.5,0.5-0.9,0.5L10.1,51.9z M19.9,35.9l-8.1,14
				l36.7,0l8.2-14.1L19.9,35.9z"/>
		</g>
		<g>
			<path class="st0" d="M40,35.8c-0.4,0-0.7-0.2-0.9-0.5l-19-33.5c-0.2-0.3-0.2-0.7,0-1c0.2-0.3,0.5-0.5,0.9-0.5c0,0,0,0,0,0
				l17.9,0.1c0.3,0,0.7,0.2,0.8,0.5l19.6,33.4c0.2,0.3,0.2,0.7,0,1c-0.2,0.3-0.5,0.5-0.9,0.5L40,35.8C40,35.8,40,35.8,40,35.8z
				 M22.6,2.3l17.9,31.5l16.2,0L38.3,2.4L22.6,2.3z"/>
		</g>
	</g>
</g>
</svg>
