<?xml version="1.0" encoding="utf-8"?>
<!-- Generator: Adobe Illustrator 19.1.0, SVG Export Plug-In . SVG Version: 6.00 Build 0)  -->
<svg version="1.1" id="Layer_1" xmlns="http://www.w3.org/2000/svg" xmlns:xlink="http://www.w3.org/1999/xlink" x="0px" y="0px"
	 viewBox="0 0 50.4 50.7" style="enable-background:new 0 0 50.4 50.7;" xml:space="preserve">
<g>
	<g>
		<polygon points="27.1,23.4 26.1,23.4 27.5,21.2 27.6,23.4 		"/>
	</g>
	<g>
		<path d="M46.1,50.5H4.3c-2.3,0-4.1-1.8-4.1-4V4.2c0-2.2,1.8-4,4.1-4h41.8c2.3,0,4.1,1.8,4.1,4v42.3C50.2,48.7,48.4,50.5,46.1,50.5
			z M4.3,1.2c-1.7,0-3.1,1.4-3.1,3v42.3c0,1.7,1.4,3,3.1,3h41.8c1.7,0,3.1-1.4,3.1-3V4.2c0-1.7-1.4-3-3.1-3H4.3z M42.8,42.5h-8.4
			V30.1c0-3-1.1-4.5-3.3-4.5c-2.1,0-3.1,1.7-3.3,2.4c-0.1,0.3-0.2,0.9-0.2,1.6v12.9h-8.4l0-0.5c0-0.2,0.1-20.2,0-22.3l0-0.5h8.4v2.2
			c1.2-1.4,3-2.7,6.2-2.7c5.6,0,9,3.9,9,10.5V42.5z M35.4,41.5h6.4V29.2c0-6.1-2.9-9.5-8-9.5c-3.6,0-5.2,1.8-6.3,3.5l-0.9,1.4v-4.3
			h-6.4c0.1,3.4,0,18.3,0,21.3h6.4v-12c0-0.9,0.1-1.5,0.3-2c0.8-1.9,2.4-3,4.3-3c2.7,0,4.2,2,4.2,5.5V41.5z M16.1,42.5H7.7V19.2h8.4
			V42.5z M8.6,41.5h6.4V20.2H8.6V41.5z M11.9,17.2L11.9,17.2c-2.7,0-4.6-1.8-4.6-4.3s2-4.3,4.7-4.3c2.7,0,4.6,1.8,4.6,4.3
			C16.5,15.3,14.6,17.2,11.9,17.2z M11.9,9.5c-2.2,0-3.7,1.4-3.7,3.4s1.5,3.4,3.6,3.4h0c2.2,0,3.7-1.4,3.7-3.4
			C15.5,10.8,14,9.5,11.9,9.5z"/>
	</g>
</g>
</svg>
