<?xml version="1.0" encoding="utf-8"?>
<!-- Generator: Adobe Illustrator 19.2.0, SVG Export Plug-In . SVG Version: 6.00 Build 0)  -->
<svg version="1.1" id="Layer_1" xmlns="http://www.w3.org/2000/svg" xmlns:xlink="http://www.w3.org/1999/xlink" x="0px" y="0px"
	 viewBox="0 0 69 57.5" style="enable-background:new 0 0 69 57.5;" xml:space="preserve">
<style type="text/css">
	.st0{fill:#FFFFFF;}
	.st1{fill:#676767;}
</style>
<polygon class="st0" points="67,13.1 56.7,13.1 56.7,2.8 47.5,2.8 47.5,13.1 37.2,13.1 37.2,22.3 47.5,22.3 47.5,32.6 56.7,32.6 
	56.7,22.3 67,22.3 "/>
<polygon class="st1" points="68,12.1 57.7,12.1 57.7,1.8 48.5,1.8 48.5,12.1 38.2,12.1 38.2,21.3 48.5,21.3 48.5,31.6 57.7,31.6 
	57.7,21.3 68,21.3 "/>
<g>
	<path class="st1" d="M19.9,19.5h15.3V16H19.9c-0.9,0-1.8,0.9-1.8,1.8C18.2,18.6,19,19.5,19.9,19.5z"/>
	<path class="st1" d="M45.5,33.6v-1.8H19.9c-0.9,0-1.8,0.9-1.8,1.8c0,0.9,0.9,1.8,1.8,1.8h32.5c0.9,0,1.8-0.9,1.8-1.8
		c0-0.3-0.1,0.4-0.3,0.1H45.5z"/>
	<path class="st1" d="M52.4,47.6H19.9c-0.9,0-1.8,0.9-1.8,1.8c0,0.9,0.9,1.8,1.8,1.8h32.5c0.9,0,1.8-0.9,1.8-1.8
		C54.2,48.5,53.3,47.6,52.4,47.6z"/>
	<path class="st1" d="M7.6,10.7c-3.5,0-6.2,2.6-6.2,6.2c0,3.5,2.6,6.2,6.2,6.2c3.5,0,6.2-2.6,6.2-6.2C13.8,13.3,11.1,10.7,7.6,10.7z
		"/>
	<path class="st1" d="M7.6,26.5c-3.5,0-6.2,2.6-6.2,6.2s2.6,6.2,6.2,6.2c3.5,0,6.2-2.6,6.2-6.2S11.1,26.5,7.6,26.5z"/>
	<path class="st1" d="M7.6,42.3c-3.5,0-6.2,2.6-6.2,6.2s2.6,6.2,6.2,6.2c3.5,0,6.2-2.6,6.2-6.2S11.1,42.3,7.6,42.3z"/>
</g>
</svg>
