<?xml version="1.0" encoding="utf-8"?>
<!-- Generator: Adobe Illustrator 18.1.1, SVG Export Plug-In . SVG Version: 6.00 Build 0)  -->
<svg version="1.1" id="Layer_1" xmlns="http://www.w3.org/2000/svg" xmlns:xlink="http://www.w3.org/1999/xlink" x="0px" y="0px"
	 viewBox="0 0 18 15" enable-background="new 0 0 18 15" xml:space="preserve">
<g>
	<path fill="#676767" d="M6.3,3h11.1C17.7,3,18,2.7,18,2.4c0-0.3-0.3-0.6-0.6-0.6H6.3C6,1.8,5.7,2.1,5.7,2.4C5.7,2.7,6,3,6.3,3z"/>
	<path fill="#676767" d="M17.4,7.2H6.3C6,7.2,5.7,7.5,5.7,7.8c0,0.3,0.3,0.6,0.6,0.6h11.1c0.3,0,0.6-0.3,0.6-0.6
		C18,7.5,17.7,7.2,17.4,7.2z"/>
	<path fill="#676767" d="M17.4,12.6H6.3c-0.3,0-0.6,0.3-0.6,0.6c0,0.3,0.3,0.6,0.6,0.6h11.1c0.3,0,0.6-0.3,0.6-0.6
		C18,12.9,17.7,12.6,17.4,12.6z"/>
	<path fill="#676767" d="M2.1,0C0.9,0,0,0.9,0,2.1s0.9,2.1,2.1,2.1s2.1-0.9,2.1-2.1S3.3,0,2.1,0z"/>
	<path fill="#676767" d="M2.1,5.4C0.9,5.4,0,6.3,0,7.5c0,1.2,0.9,2.1,2.1,2.1s2.1-0.9,2.1-2.1C4.2,6.3,3.3,5.4,2.1,5.4z"/>
	<path fill="#676767" d="M2.1,10.8c-1.2,0-2.1,0.9-2.1,2.1S0.9,15,2.1,15s2.1-0.9,2.1-2.1S3.3,10.8,2.1,10.8z"/>
</g>
</svg>
