<svg id="icons" xmlns="http://www.w3.org/2000/svg" viewBox="0 0 16 24"><defs><style>.cls-1{fill:#231f20;}</style></defs><title>Vector Smart Object</title><path class="cls-1" d="M8,24a0.5,0.5,0,0,1-.42-0.22C7.27,23.31,0,12.24,0,8A8,8,0,0,1,16,8c0,4.24-7.27,15.31-7.58,15.78A0.5,0.5,0,0,1,8,24ZM8,1A7,7,0,0,0,1,8c0,3.4,5.43,12.13,7,14.58C9.57,20.13,15,11.39,15,8A7,7,0,0,0,8,1Z"/><path class="cls-1" d="M8,11.5A3.5,3.5,0,1,1,11.5,8,3.5,3.5,0,0,1,8,11.5Zm0-6A2.5,2.5,0,1,0,10.5,8,2.5,2.5,0,0,0,8,5.5Z"/></svg>