<?xml version="1.0" encoding="utf-8"?>
<!-- Generator: Adobe Illustrator 19.1.0, SVG Export Plug-In . SVG Version: 6.00 Build 0)  -->
<svg version="1.1" id="icons" xmlns="http://www.w3.org/2000/svg" xmlns:xlink="http://www.w3.org/1999/xlink" x="0px" y="0px"
	 viewBox="0 0 18 24" style="enable-background:new 0 0 18 24;" xml:space="preserve">
<g>
	<g>
		<circle cx="9" cy="15" r="1"/>
	</g>
	<g>
		<path d="M9,18.9c-0.3,0-0.5-0.2-0.5-0.5v-3C8.5,15.2,8.7,15,9,15s0.5,0.2,0.5,0.5v3C9.5,18.7,9.3,18.9,9,18.9z"/>
	</g>
	<g>
		<path d="M17.9,23.9H0.1V9h17.8V23.9z M1.1,22.9h15.8V10H1.1V22.9z"/>
	</g>
	<g>
		<path d="M14.9,10H3.1v-4c0-3.3,2.7-5.9,5.9-5.9s5.9,2.7,5.9,5.9V10z M4.1,9h9.9v-3c0-2.7-2.2-4.9-4.9-4.9S4.1,3.3,4.1,6.1V9z"/>
	</g>
</g>
</svg>
