<?xml version="1.0" encoding="utf-8"?>
<!-- Generator: Adobe Illustrator 18.1.1, SVG Export Plug-In . SVG Version: 6.00 Build 0)  -->
<svg version="1.1" id="Layer_1" xmlns="http://www.w3.org/2000/svg" xmlns:xlink="http://www.w3.org/1999/xlink" x="0px" y="0px"
	 viewBox="0 0 12 12" enable-background="new 0 0 12 12" xml:space="preserve">
<path fill="#9B9B9B" d="M11.9,11.3L7.5,7c0.6-0.7,1-1.7,1-2.7C8.5,1.9,6.6,0,4.3,0S0,1.9,0,4.3c0,2.4,1.9,4.3,4.3,4.3
	c1,0,2-0.4,2.7-1l4.3,4.3c0.1,0.1,0.2,0.1,0.3,0.1c0.1,0,0.2,0,0.3-0.1C12,11.7,12,11.5,11.9,11.3z M4.3,7.7c-1.9,0-3.5-1.5-3.5-3.5
	s1.6-3.5,3.5-3.5s3.5,1.6,3.5,3.5C7.7,6.2,6.2,7.7,4.3,7.7z"/>
</svg>
