<?xml version="1.0" encoding="utf-8"?>
<!-- Generator: Adobe Illustrator 19.1.0, SVG Export Plug-In . SVG Version: 6.00 Build 0)  -->
<svg version="1.1" id="icons" xmlns="http://www.w3.org/2000/svg" xmlns:xlink="http://www.w3.org/1999/xlink" x="0px" y="0px"
	 viewBox="0 0 24 21.5" style="enable-background:new 0 0 24 21.5;" xml:space="preserve">
<style type="text/css">
	.st0{fill:#231F20;}
</style>
<g>
	<g>
		<path class="st0" d="M21.5,21H2.5c-1.1,0-1.9-0.9-1.9-1.9V8.6c0-0.2,0.1-0.3,0.2-0.4l11-7.6c0.2-0.1,0.4-0.1,0.6,0l11,7.6
			c0.1,0.1,0.2,0.2,0.2,0.4v10.5C23.5,20.2,22.6,21,21.5,21z M1.5,8.9v10.2c0,0.5,0.4,0.9,0.9,0.9h19.1c0.5,0,0.9-0.4,0.9-0.9V8.9
			L12,1.6L1.5,8.9z"/>
	</g>
	<g>
		<path class="st0" d="M20.1,17.7c-0.1,0-0.2,0-0.3-0.1l-4.6-3.3H8.8l-4.6,3.3c-0.2,0.2-0.5,0.1-0.7-0.1c-0.2-0.2-0.1-0.5,0.1-0.7
			l4.8-3.3c0.1-0.1,0.2-0.1,0.3-0.1h6.7c0.1,0,0.2,0,0.3,0.1l4.8,3.3c0.2,0.2,0.3,0.5,0.1,0.7C20.4,17.6,20.3,17.7,20.1,17.7z"/>
	</g>
	<g>
		<path class="st0" d="M17.3,12.9c-0.2,0-0.3-0.1-0.4-0.2c-0.2-0.2-0.1-0.5,0.1-0.7l5.7-3.8c0.2-0.2,0.5-0.1,0.7,0.1
			c0.2,0.2,0.1,0.5-0.1,0.7l-5.7,3.8C17.4,12.9,17.3,12.9,17.3,12.9z"/>
	</g>
	<g>
		<path class="st0" d="M6.7,12.9c-0.1,0-0.2,0-0.3-0.1L0.7,9C0.5,8.9,0.5,8.6,0.6,8.3C0.8,8.1,1.1,8,1.3,8.2L7,12
			c0.2,0.2,0.3,0.5,0.1,0.7C7.1,12.8,6.9,12.9,6.7,12.9z"/>
	</g>
</g>
</svg>
