<?xml version="1.0" encoding="utf-8"?>
<!-- Generator: Adobe Illustrator 19.1.0, SVG Export Plug-In . SVG Version: 6.00 Build 0)  -->
<svg version="1.1" id="icons" xmlns="http://www.w3.org/2000/svg" xmlns:xlink="http://www.w3.org/1999/xlink" x="0px" y="0px"
	 viewBox="0 0 24 16" style="enable-background:new 0 0 24 16;" xml:space="preserve">
<style type="text/css">
	.st0{fill:#231F20;}
</style>
<g>
	<g>
		<path class="st0" d="M21.9,15.9H2.1c-1.1,0-2-0.9-2-2V2.1c0-1.1,0.9-2,2-2h19.7c1.1,0,2,0.9,2,2v11.8C23.8,15,23,15.9,21.9,15.9z
			 M2.1,1.1c-0.5,0-1,0.4-1,1v11.8c0,0.5,0.4,1,1,1h19.7c0.5,0,1-0.4,1-1V2.1c0-0.5-0.4-1-1-1H2.1z"/>
	</g>
	<g>
		<path class="st0" d="M12,10.5c-0.1,0-0.2,0-0.3-0.1L3.3,5C3.1,4.8,3,4.5,3.2,4.3C3.3,4,3.7,4,3.9,4.1L12,9.4l8.1-5.3
			C20.3,4,20.7,4,20.8,4.3C21,4.5,20.9,4.8,20.7,5l-8.4,5.4C12.2,10.4,12.1,10.5,12,10.5z"/>
	</g>
	<g>
		<path class="st0" d="M3.6,12.4c-0.2,0-0.3-0.1-0.4-0.2C3,12,3.1,11.7,3.4,11.5l3.5-2c0.2-0.1,0.5-0.1,0.7,0.2
			c0.1,0.2,0.1,0.5-0.2,0.7l-3.5,2C3.8,12.4,3.7,12.4,3.6,12.4z"/>
	</g>
	<g>
		<path class="st0" d="M20.4,12.4c-0.1,0-0.2,0-0.2-0.1l-3.5-2c-0.2-0.1-0.3-0.4-0.2-0.7c0.1-0.2,0.4-0.3,0.7-0.2l3.5,2
			c0.2,0.1,0.3,0.4,0.2,0.7C20.7,12.4,20.6,12.4,20.4,12.4z"/>
	</g>
</g>
</svg>
