<svg id="icons" xmlns="http://www.w3.org/2000/svg" viewBox="0 0 24 24"><defs><style>.cls-1{fill:#231f20;}</style></defs><title>notes</title><path class="cls-1" d="M12.5,24A0.5,0.5,0,0,1,12,23.36l1-3.5a0.5,0.5,0,0,1,.13-0.22l7.5-7.5a0.5,0.5,0,0,1,.71,0l2.5,2.5a0.5,0.5,0,0,1,0,.71l-7.5,7.5a0.49,0.49,0,0,1-.22.13l-3.5,1Zm1.45-3.74-0.72,2.51,2.51-.72L22.79,15,21,13.21ZM16,22.5h0Z"/><rect class="cls-1" x="19.75" y="13.98" width="1" height="3.54" transform="translate(-5.21 18.93) rotate(-45)"/><path class="cls-1" d="M16,23a0.5,0.5,0,0,1-.35-0.15l-2.5-2.5a0.5,0.5,0,0,1,.71-0.71l2.5,2.5A0.5,0.5,0,0,1,16,23Z"/><path class="cls-1" d="M10,22H2.5A2.5,2.5,0,0,1,0,19.5V3.5A0.5,0.5,0,0,1,.5,3h4a0.5,0.5,0,0,1,0,1H1V19.5A1.5,1.5,0,0,0,2.5,21H10A0.5,0.5,0,0,1,10,22Z"/><path class="cls-1" d="M9.5,20h-7A0.5,0.5,0,0,1,2,19.5V5.5A0.5,0.5,0,0,1,2.5,5h2a0.5,0.5,0,0,1,0,1H3V19H9.5A0.5,0.5,0,0,1,9.5,20Z"/><path class="cls-1" d="M16.5,10.5A0.5,0.5,0,0,1,16,10V4H12.5a0.5,0.5,0,0,1,0-1h4a0.5,0.5,0,0,1,.5.5V10A0.5,0.5,0,0,1,16.5,10.5Z"/><path class="cls-1" d="M12.5,7h-8A0.5,0.5,0,0,1,4,6.5v-4A0.5,0.5,0,0,1,4.5,2H6A2.36,2.36,0,0,1,8.5,0,2.36,2.36,0,0,1,11,2H12.5a0.5,0.5,0,0,1,.5.5v4A0.5,0.5,0,0,1,12.5,7ZM5,6h7V3H10.5A0.5,0.5,0,0,1,10,2.5,1.43,1.43,0,0,0,8.5,1,1.43,1.43,0,0,0,7,2.5a0.5,0.5,0,0,1-.5.5H5V6Zm6-3.5h0Z"/><path class="cls-1" d="M14.5,10.5A0.5,0.5,0,0,1,14,10V6H12.5a0.5,0.5,0,0,1,0-1h2a0.5,0.5,0,0,1,.5.5V10A0.5,0.5,0,0,1,14.5,10.5Z"/><path class="cls-1" d="M10.5,10h-5a0.5,0.5,0,0,1,0-1h5A0.5,0.5,0,0,1,10.5,10Z"/><path class="cls-1" d="M10.5,12h-5a0.5,0.5,0,0,1,0-1h5A0.5,0.5,0,0,1,10.5,12Z"/><path class="cls-1" d="M10.5,14h-5a0.5,0.5,0,0,1,0-1h5A0.5,0.5,0,0,1,10.5,14Z"/><path class="cls-1" d="M8.5,16h-3a0.5,0.5,0,0,1,0-1h3A0.5,0.5,0,0,1,8.5,16Z"/></svg>