<svg id="icons" xmlns="http://www.w3.org/2000/svg" viewBox="0 0 24 19"><defs><style>.cls-1{fill:#231f20;}</style></defs><title>people</title><path class="cls-1" d="M15.5,19H0.5A0.5,0.5,0,0,1,0,18.5V14c0-1,3.62-2.57,5.5-3.34V9.28a3.07,3.07,0,0,1-1-2.43,1.81,1.81,0,0,1-.65-1.48,1.61,1.61,0,0,1,.23-0.87A1.09,1.09,0,0,1,4.36,4.2c-0.3-.71-0.71-1.74-0.2-2.37a1.14,1.14,0,0,1,1-.38C5.74,0.39,7.26,0,8.5,0,9.89,0,11.64.49,12,1.88a3.7,3.7,0,0,1-.3,2.34,1.08,1.08,0,0,1,.25.28,1.61,1.61,0,0,1,.22.86,1.83,1.83,0,0,1-.65,1.5,3.07,3.07,0,0,1-1,2.43v1.38C12.38,11.43,16,13,16,14v4.5A0.5,0.5,0,0,1,15.5,19ZM1,18H15V14.1a22.74,22.74,0,0,0-5.19-2.64A0.5,0.5,0,0,1,9.5,11V9a0.5,0.5,0,0,1,.33-0.47h0s0.67-.34.67-2A0.5,0.5,0,0,1,11,6a1.67,1.67,0,0,0,.15-0.66A0.51,0.51,0,0,0,11.06,5a0.54,0.54,0,0,1-.37-0.15,0.52,0.52,0,0,1-.16-0.36A1.28,1.28,0,0,1,10.69,4,2.92,2.92,0,0,0,11,2.12C10.85,1.47,9.79,1,8.5,1S6.15,1.47,6,2.12a0.5,0.5,0,0,1-.58.37,0.76,0.76,0,0,0-.47,0,2.46,2.46,0,0,0,.38,1.41,1.67,1.67,0,0,1,.19.61A0.5,0.5,0,0,1,5,5s-0.07,0-.11.12A1.08,1.08,0,0,0,5.06,6a0.44,0.44,0,0,1,.44.49c0,1.7.68,2,.68,2A0.53,0.53,0,0,1,6.5,9v2a0.5,0.5,0,0,1-.31.46A22.74,22.74,0,0,0,1,14.1V18Z"/><path class="cls-1" d="M23.5,19H18a0.5,0.5,0,0,1,0-1h5V14.13a14.58,14.58,0,0,0-2.41-1c-0.59-.21-1.2-0.43-1.78-0.66A0.5,0.5,0,0,1,18.5,12V10.5A0.5,0.5,0,0,1,18.87,10s0.63-.24.63-1.52A0.5,0.5,0,0,1,19.87,8a1.42,1.42,0,0,0,0-1A0.41,0.41,0,0,1,19.5,6.5,1,1,0,0,1,19.69,6,1.75,1.75,0,0,0,20,4.66a2.21,2.21,0,0,0-2-.78,2.21,2.21,0,0,0-2,.78A0.5,0.5,0,0,1,15.4,5a0.64,0.64,0,0,0-.33,0,3.26,3.26,0,0,0,.29,1,1.41,1.41,0,0,1,.14.49A0.5,0.5,0,0,1,15,7a1.74,1.74,0,0,0,.12,1,0.5,0.5,0,0,1,.38.48c0,1.28.62,1.51,0.65,1.52a0.52,0.52,0,0,1,.35.48v1a0.5,0.5,0,0,1-1,0V10.8a2.43,2.43,0,0,1-1-2A1.94,1.94,0,0,1,14,7.37a1.87,1.87,0,0,1,.17-0.83,1.06,1.06,0,0,1,.22-0.29,2,2,0,0,1,0-1.94A1.09,1.09,0,0,1,15.21,4,3.45,3.45,0,0,1,18,2.88c1.15,0,2.61.38,3,1.47a2.46,2.46,0,0,1-.31,2,1.1,1.1,0,0,1,.17.25,1.93,1.93,0,0,1,.17.83,1.94,1.94,0,0,1-.51,1.44,2.43,2.43,0,0,1-1,2v0.86l1.43,0.53C23.11,13,24,13.32,24,14v4.5A0.5,0.5,0,0,1,23.5,19Z"/></svg>