<?xml version="1.0" encoding="utf-8"?>
<!-- Generator: Adobe Illustrator 18.1.1, SVG Export Plug-In . SVG Version: 6.00 Build 0)  -->
<svg version="1.1" id="Layer_1" xmlns="http://www.w3.org/2000/svg" xmlns:xlink="http://www.w3.org/1999/xlink" x="0px" y="0px"
	 viewBox="0 0 20.4 17.7" enable-background="new 0 0 20.4 17.7" xml:space="preserve">
<g id="Layer_3_2_">
	<g>
		<path fill="#676767" d="M0,8.9c0,0.6,0,1.3,0.4,1.7c0.1,0.1,0.2,0.1,0.3,0.2v3.5h3.4v-3.5c0.2-0.1,0.5-0.3,0.6-0.7
			c0.1-0.4,0.1-0.8,0.1-1.2V6.1H0V8.9z"/>
		<path fill="#676767" d="M15.6,6.1v2.7c0,0.8,0.3,1.4,0.7,1.6v3.8h3.4v-3.8c0.4-0.2,0.7-0.9,0.7-1.6V6.1H15.6z"/>
		<path fill="#676767" d="M6.8,10.9c0,1.1,0.5,1.9,1.4,2v4.8h4.1v-4.8c0.8-0.2,1.4-0.9,1.4-2V6.1H6.8V10.9z"/>
		<path fill="#676767" d="M18,5.4c0.9,0,1.7-0.8,1.7-1.7S19,2,18,2c-0.9,0-1.7,0.8-1.7,1.7S17.1,5.4,18,5.4z"/>
		<path fill="#676767" d="M2.4,5.4c0.9,0,1.7-0.8,1.7-1.7S3.3,2,2.4,2S0.7,2.8,0.7,3.7S1.4,5.4,2.4,5.4z"/>
		<path fill="#676767" d="M10.2,5.4c1.5,0,2.7-1.2,2.7-2.7S11.7,0,10.2,0S7.5,1.2,7.5,2.7S8.7,5.4,10.2,5.4z"/>
	</g>
</g>
</svg>
