<svg id="icons" xmlns="http://www.w3.org/2000/svg" viewBox="0 0 20 21.5"><defs><style>.cls-1{fill:#231f20;}</style></defs><title>uEA35-icon--person</title><path class="cls-1" d="M20,21.5H0V19.11a3.51,3.51,0,0,1,2.32-3.3L7,14.15V11.78H8v3.07L2.66,16.76A2.51,2.51,0,0,0,1,19.11V20.5H19V19.11a2.51,2.51,0,0,0-1.66-2.35L12,14.85V11.59h1v2.55l4.68,1.67A3.51,3.51,0,0,1,20,19.11V21.5Z"/><path class="cls-1" d="M9.88,13c-3,0-5.5-2.92-5.5-6.5S6.84,0,9.88,0s5.5,2.92,5.5,6.5S12.91,13,9.88,13Zm0-12c-2.48,0-4.5,2.47-4.5,5.5s2,5.5,4.5,5.5,4.5-2.47,4.5-5.5S12.36,1,9.88,1Z"/><path class="cls-1" d="M13.54,6.59A3.44,3.44,0,0,1,10.61,5,5.49,5.49,0,0,1,6.88,6.5,4.5,4.5,0,0,1,4.71,6l0.46-.89a3.48,3.48,0,0,0,1.7.41A4.13,4.13,0,0,0,10.2,3.84L10.62,3l0.45,0.79c0.85,1.49,1.75,2,3.21,1.69l0.33,0h0.15l0.12,1-0.21,0-0.21,0A4.91,4.91,0,0,1,13.54,6.59Z"/></svg>