<svg id="icons" xmlns="http://www.w3.org/2000/svg" viewBox="0 0 16 24"><defs><style>.cls-1{fill:#231f20;}</style></defs><title>phone</title><path class="cls-1" d="M12.5,18h-9A1.5,1.5,0,0,1,2,16.5V5.5A1.5,1.5,0,0,1,3.5,4h9A1.5,1.5,0,0,1,14,5.5v11A1.5,1.5,0,0,1,12.5,18ZM3.5,5a0.5,0.5,0,0,0-.5.5v11a0.5,0.5,0,0,0,.5.5h9a0.5,0.5,0,0,0,.5-0.5V5.5A0.5,0.5,0,0,0,12.5,5h-9Z"/><path class="cls-1" d="M12.5,24h-9A3.5,3.5,0,0,1,0,20.5V3.5A3.5,3.5,0,0,1,3.5,0h9A3.5,3.5,0,0,1,16,3.5v17A3.5,3.5,0,0,1,12.5,24ZM3.5,1A2.5,2.5,0,0,0,1,3.5v17A2.5,2.5,0,0,0,3.5,23h9A2.5,2.5,0,0,0,15,20.5V3.5A2.5,2.5,0,0,0,12.5,1h-9Z"/><path class="cls-1" d="M10.5,3h-5a0.5,0.5,0,0,1,0-1h5A0.5,0.5,0,0,1,10.5,3Z"/><polygon class="cls-1" points="5 20 4 20 4 21 5 21 5 20 5 20"/><polygon class="cls-1" points="12 20 11 20 11 21 12 21 12 20 12 20"/><path class="cls-1" d="M9.5,22h-3A0.5,0.5,0,0,1,6,21.5v-2A0.5,0.5,0,0,1,6.5,19h3a0.5,0.5,0,0,1,.5.5v2A0.5,0.5,0,0,1,9.5,22ZM7,21H9V20H7v1Z"/></svg>