<?xml version="1.0" encoding="utf-8"?>
<!-- Generator: Adobe Illustrator 18.1.1, SVG Export Plug-In . SVG Version: 6.00 Build 0)  -->
<svg version="1.1" id="Layer_1" xmlns="http://www.w3.org/2000/svg" xmlns:xlink="http://www.w3.org/1999/xlink" x="0px" y="0px"
	 viewBox="0 0 25 30" enable-background="new 0 0 25 30" xml:space="preserve">
<g>
	<path d="M10.5,21c-0.1,0-0.3,0-0.4-0.1l-8.6-8.6C0.7,11.4,0,9.7,0,8.5V5c0-0.3,0.2-0.5,0.5-0.5S1,4.7,1,5v3.5c0,1,0.6,2.4,1.3,3.1
		l8.6,8.6c0.2,0.2,0.2,0.5,0,0.7C10.8,21,10.6,21,10.5,21z"/>
</g>
<g>
	<path d="M14.5,21c-0.1,0-0.3,0-0.4-0.1c-0.2-0.2-0.2-0.5,0-0.7l8.6-8.6c0.7-0.7,1.3-2.1,1.3-3.1V5c0-0.3,0.2-0.5,0.5-0.5
		S25,4.7,25,5v3.5c0,1.2-0.7,2.9-1.6,3.8l-8.6,8.6C14.8,21,14.6,21,14.5,21z"/>
</g>
<g>
	<path d="M13.5,30h-2c-0.8,0-1.5-0.7-1.5-1.5v-8c0-0.3,0.2-0.5,0.5-0.5s0.5,0.2,0.5,0.5v8c0,0.3,0.2,0.5,0.5,0.5h2
		c0.3,0,0.5-0.2,0.5-0.5v-8c0-0.3,0.2-0.5,0.5-0.5s0.5,0.2,0.5,0.5v8C15,29.3,14.3,30,13.5,30z"/>
</g>
<g>
	<path d="M12.5,10C5.5,10,0,7.8,0,5s5.5-5,12.5-5C19.5,0,25,2.2,25,5S19.5,10,12.5,10z M12.5,1C5.7,1,1,3.1,1,5s4.7,4,11.5,4
		S24,6.9,24,5S19.3,1,12.5,1z"/>
</g>
<g>
	<rect fill="none" width="25" height="30"/>
</g>
</svg>
