<svg id="icons" xmlns="http://www.w3.org/2000/svg" viewBox="0 0 21 22"><defs><style>.cls-1{fill:#231f20;}</style></defs><title>progress</title><path class="cls-1" d="M8.5,22h-8A0.5,0.5,0,0,1,0,21.5v-3A0.5,0.5,0,0,1,.5,18h8a0.5,0.5,0,0,1,.5.5v3A0.5,0.5,0,0,1,8.5,22ZM1,21H8V19H1v2Z"/><path class="cls-1" d="M12.5,16H0.5A0.5,0.5,0,0,1,0,15.5v-3A0.5,0.5,0,0,1,.5,12h12a0.5,0.5,0,0,1,.5.5v3A0.5,0.5,0,0,1,12.5,16ZM1,15H12V13H1v2Z"/><path class="cls-1" d="M16.5,10H0.5A0.5,0.5,0,0,1,0,9.5v-3A0.5,0.5,0,0,1,.5,6h16a0.5,0.5,0,0,1,.5.5v3A0.5,0.5,0,0,1,16.5,10ZM1,9H16V7H1V9Z"/><path class="cls-1" d="M20.5,4H0.5A0.5,0.5,0,0,1,0,3.5v-3A0.5,0.5,0,0,1,.5,0h20a0.5,0.5,0,0,1,.5.5v3A0.5,0.5,0,0,1,20.5,4ZM1,3H20V1H1V3Z"/></svg>