<?xml version="1.0" encoding="utf-8"?>
<!-- Generator: Adobe Illustrator 19.1.0, SVG Export Plug-In . SVG Version: 6.00 Build 0)  -->
<svg version="1.1" id="icons" xmlns="http://www.w3.org/2000/svg" xmlns:xlink="http://www.w3.org/1999/xlink" x="0px" y="0px"
	 viewBox="0 0 17.6 22.5" style="enable-background:new 0 0 17.6 22.5;" xml:space="preserve">
<style type="text/css">
	.st0{fill:#231F20;}
</style>
<g>
	<g>
		<path class="st0" d="M12,22.2H8.8c-1.8,0-3.5-0.9-4.5-2.5c-1.7-2.6-3.7-6.9-3.8-7c-0.4-0.6-0.3-1.5,0.2-2.1C1.3,10,2.3,10,3,10.5
			l1.8,2.1V4.2c0-1.1,0.9-2,2-2s2,0.9,2,2V10h-1V4.2c0-0.5-0.4-1-1-1s-1,0.4-1,1v11.1l-3.5-4c-0.2-0.2-0.6-0.2-0.9,0.1
			c-0.2,0.2-0.3,0.6-0.1,0.9c0.1,0.1,2.1,4.4,3.8,7c0.8,1.3,2.2,2,3.7,2H12c2.4,0,4.4-2,4.4-4.4v-6.3h1v6.3
			C17.4,19.8,15,22.2,12,22.2z"/>
	</g>
	<g>
		<path class="st0" d="M11.6,8.1h-1V2.2c0-0.5-0.4-1-1-1s-1,0.4-1,1v5.8h-1V2.2c0-1.1,0.9-2,2-2s2,0.9,2,2V8.1z"/>
	</g>
	<g>
		<path class="st0" d="M14.5,10h-1V4.2c0-0.5-0.4-1-1-1s-1,0.4-1,1V10h-1V4.2c0-1.1,0.9-2,2-2s2,0.9,2,2V10z"/>
	</g>
	<g>
		<path class="st0" d="M17.4,13h-1V7.1c0-0.5-0.4-1-1-1s-1,0.4-1,1v4.4h-1V7.1c0-1.1,0.9-2,2-2s2,0.9,2,2V13z"/>
	</g>
</g>
</svg>
