<?xml version="1.0" encoding="utf-8"?>
<!-- Generator: Adobe Illustrator 19.1.0, SVG Export Plug-In . SVG Version: 6.00 Build 0)  -->
<svg version="1.1" id="icons" xmlns="http://www.w3.org/2000/svg" xmlns:xlink="http://www.w3.org/1999/xlink" x="0px" y="0px"
	 viewBox="0 0 24 24" style="enable-background:new 0 0 24 24;" xml:space="preserve">
<style type="text/css">
	.st0{fill:#231F20;}
</style>
<g>
	<g>
		<path class="st0" d="M23.5,24h-23C0.2,24,0,23.8,0,23.5v-20c0-0.1,0.1-0.3,0.1-0.4l3-3C3.2,0.1,3.4,0,3.5,0h20
			C23.8,0,24,0.2,24,0.5v23C24,23.8,23.8,24,23.5,24z M1,23h22V1H3.7L1,3.7V23z"/>
	</g>
	<g>
		<path class="st0" d="M19.5,6h-15C4.2,6,4,5.8,4,5.5v-5C4,0.2,4.2,0,4.5,0h15C19.8,0,20,0.2,20,0.5v5C20,5.8,19.8,6,19.5,6z M5,5
			h14V1H5V5z"/>
	</g>
	<g>
		<path class="st0" d="M19.5,24h-15C4.2,24,4,23.8,4,23.5v-3C4,20.2,4.2,20,4.5,20h15c0.3,0,0.5,0.2,0.5,0.5v3
			C20,23.8,19.8,24,19.5,24z M5,23h14v-2H5V23z"/>
	</g>
	<g>
		<path class="st0" d="M12,16c-2.5,0-4.5-2-4.5-4.5S9.5,7,12,7s4.5,2,4.5,4.5S14.5,16,12,16z M12,8c-1.9,0-3.5,1.6-3.5,3.5
			S10.1,15,12,15s3.5-1.6,3.5-3.5S13.9,8,12,8z"/>
	</g>
	<g>
		<path class="st0" d="M19.5,19h-5c-0.3,0-0.5-0.2-0.5-0.5s0.2-0.5,0.5-0.5h5c0.3,0,0.5,0.2,0.5,0.5S19.8,19,19.5,19z"/>
	</g>
	<g>
		<path class="st0" d="M10,13c-0.3,0-0.5-0.2-0.5-0.5v-2c0-0.3,0.2-0.5,0.5-0.5s0.5,0.2,0.5,0.5v2C10.5,12.8,10.3,13,10,13z"/>
	</g>
	<g>
		<g>
			<path class="st0" d="M12,11c-0.3,0-0.5,0.2-0.5,0.5c0,0.3,0.2,0.5,0.5,0.5c0.3,0,0.5-0.2,0.5-0.5C12.5,11.2,12.3,11,12,11L12,11z
				"/>
		</g>
	</g>
</g>
</svg>
