<?xml version="1.0" encoding="utf-8"?>
<!-- Generator: Adobe Illustrator 18.1.1, SVG Export Plug-In . SVG Version: 6.00 Build 0)  -->
<svg version="1.1" id="Layer_1" xmlns="http://www.w3.org/2000/svg" xmlns:xlink="http://www.w3.org/1999/xlink" x="0px" y="0px"
	 viewBox="0 0 30 30" enable-background="new 0 0 30 30" xml:space="preserve">
<g>
	<path fill="#231F20" d="M29.5,30c-0.1,0-0.3,0-0.4-0.1L17.2,17.9c-0.2-0.2-0.2-0.5,0-0.7s0.5-0.2,0.7,0l11.9,11.9
		c0.2,0.2,0.2,0.5,0,0.7C29.8,30,29.6,30,29.5,30z"/>
</g>
<g>
	<path fill="#231F20" d="M10.5,21C4.7,21,0,16.3,0,10.5C0,4.7,4.7,0,10.5,0C16.3,0,21,4.7,21,10.5C21,16.3,16.3,21,10.5,21z M10.5,1
		C5.3,1,1,5.3,1,10.5S5.3,20,10.5,20s9.5-4.3,9.5-9.5S15.7,1,10.5,1z"/>
</g>
<g>
	<rect fill="none" width="30" height="30"/>
</g>
</svg>
