<?xml version="1.0" encoding="utf-8"?>
<!-- Generator: Adobe Illustrator 18.1.1, SVG Export Plug-In . SVG Version: 6.00 Build 0)  -->
<svg version="1.1" id="Layer_1" xmlns="http://www.w3.org/2000/svg" xmlns:xlink="http://www.w3.org/1999/xlink" x="0px" y="0px"
	 viewBox="0 0 29.1 30" enable-background="new 0 0 29.1 30" xml:space="preserve">
<g>
	<path fill="#231F20" d="M22.6,17h-3.8c-0.3,0-0.5-0.2-0.5-0.5v-1.4c-1-0.3-1.5-0.7-2-1.2l-1.7,0.9c-0.2,0.1-0.5,0-0.7-0.2L12,11.4
		C12,11.3,12,11.2,12,11c0-0.1,0.1-0.2,0.2-0.3l1.6-0.9c-0.1-0.7-0.1-1.5,0-2.2l-1.6-0.9C12.1,6.6,12,6.5,12,6.4s0-0.3,0.1-0.4
		L14,2.7c0.1-0.2,0.4-0.3,0.7-0.2l1.6,0.9c0.5-0.5,1.1-0.9,2-1.1V0.5c0-0.3,0.2-0.5,0.5-0.5h3.8c0.3,0,0.5,0.2,0.5,0.5v1.9
		c0.8,0.4,1.4,0.7,1.8,1.1l1.5-0.9c0.1-0.1,0.3-0.1,0.4-0.1c0.1,0,0.2,0.1,0.3,0.2L29,6c0.1,0.1,0.1,0.3,0.1,0.4
		c0,0.1-0.1,0.2-0.2,0.3l-1.6,0.9c0.1,0.7,0.1,1.5,0,2.2l1.6,0.9c0.2,0.1,0.3,0.4,0.2,0.7l-1.9,3.3c-0.1,0.1-0.2,0.2-0.3,0.2
		c-0.1,0-0.3,0-0.4-0.1l-1.5-0.9c-0.5,0.4-1.1,0.7-1.8,1.1v1.4C23.1,16.8,22.8,17,22.6,17z M19.3,16h2.8v-1.3c0-0.2,0.1-0.4,0.3-0.5
		c1-0.4,1.7-0.9,2.2-1.3c0.2-0.2,0.4-0.2,0.6-0.1l1.4,0.8l1.4-2.4l-1.5-0.8c-0.2-0.1-0.3-0.3-0.2-0.5c0.2-0.8,0.2-1.7,0-2.5
		c0-0.2,0-0.4,0.2-0.5l1.5-0.8l-1.4-2.4l-1.4,0.8c-0.2,0.1-0.4,0.1-0.6-0.1c-0.5-0.4-1.2-0.9-2.2-1.3c-0.2-0.1-0.3-0.3-0.3-0.5V1
		h-2.8v1.7c0,0.2-0.2,0.4-0.4,0.5c-1.1,0.2-1.5,0.6-2.2,1.2c-0.2,0.1-0.4,0.2-0.6,0.1l-1.5-0.9l-1.4,2.4l1.4,0.8
		c0.2,0.1,0.3,0.3,0.2,0.5c-0.2,0.9-0.2,1.7,0,2.5c0,0.2,0,0.4-0.2,0.5l-1.5,0.8l1.4,2.4l1.5-0.9c0.2-0.1,0.4-0.1,0.6,0.1
		c0.7,0.6,1.1,1,2.2,1.3c0.2,0.1,0.4,0.3,0.4,0.5V16z"/>
</g>
<g>
	<path fill="#231F20" d="M20.5,11.7c-1.7,0-3-1.4-3-3s1.4-3,3-3c1.7,0,3,1.4,3,3S22.2,11.7,20.5,11.7z M20.5,6.7c-1.1,0-2,0.9-2,2
		s0.9,2,2,2c1.1,0,2-0.9,2-2S21.6,6.7,20.5,6.7z"/>
</g>
<g>
	<path fill="#231F20" d="M10.6,30H6.8c-0.3,0-0.5-0.2-0.5-0.5v-1.8c-1-0.3-1.5-0.7-2-1.2l-1.7,0.9c-0.2,0.1-0.5,0-0.7-0.2L0.1,24
		C0,23.9,0,23.8,0,23.6c0-0.1,0.1-0.2,0.2-0.3l1.6-0.9c-0.1-0.7-0.1-1.5,0-2.2l-1.6-0.9C0.2,19.2,0.1,19.1,0,19c0-0.1,0-0.3,0.1-0.4
		L2,15.3c0.1-0.2,0.4-0.3,0.7-0.2L4.3,16c0.5-0.5,1.1-0.9,2-1.1v-1.4c0-0.3,0.2-0.5,0.5-0.5h3.8c0.3,0,0.5,0.2,0.5,0.5V15
		c0.8,0.4,1.4,0.7,1.8,1.1l1.5-0.9c0.1-0.1,0.3-0.1,0.4-0.1c0.1,0,0.2,0.1,0.3,0.2l1.9,3.3c0.1,0.1,0.1,0.3,0.1,0.4
		c0,0.1-0.1,0.2-0.2,0.3l-1.6,0.9c0.1,0.7,0.1,1.5,0,2.2l1.6,0.9c0.2,0.1,0.3,0.4,0.2,0.7l-1.9,3.3c-0.1,0.1-0.2,0.2-0.3,0.2
		c-0.1,0-0.3,0-0.4-0.1l-1.5-0.9c-0.5,0.4-1.1,0.7-1.8,1.1v1.9C11.1,29.8,10.9,30,10.6,30z M7.3,29h2.8v-1.7c0-0.2,0.1-0.4,0.3-0.5
		c1-0.4,1.7-0.9,2.2-1.3c0.2-0.2,0.4-0.2,0.6-0.1l1.4,0.8l1.4-2.4l-1.5-0.8c-0.2-0.1-0.3-0.3-0.2-0.5c0.2-0.8,0.2-1.7,0-2.5
		c0-0.2,0-0.4,0.2-0.5l1.5-0.8l-1.4-2.4l-1.4,0.8c-0.2,0.1-0.4,0.1-0.6-0.1c-0.5-0.4-1.2-0.9-2.2-1.3c-0.2-0.1-0.3-0.3-0.3-0.5V14
		H7.3v1.3c0,0.2-0.2,0.4-0.4,0.5C5.8,16,5.4,16.4,4.7,17c-0.2,0.1-0.4,0.2-0.6,0.1l-1.5-0.9l-1.4,2.4l1.4,0.8
		c0.2,0.1,0.3,0.3,0.2,0.5c-0.2,0.9-0.2,1.7,0,2.5c0,0.2,0,0.4-0.2,0.5l-1.5,0.8l1.4,2.4l1.5-0.9c0.2-0.1,0.4-0.1,0.6,0.1
		c0.7,0.6,1.1,1,2.2,1.3c0.2,0.1,0.4,0.3,0.4,0.5V29z"/>
</g>
<g>
	<path fill="#231F20" d="M8.5,24.3c-1.7,0-3-1.4-3-3c0-1.7,1.4-3,3-3c1.7,0,3,1.4,3,3C11.6,23,10.2,24.3,8.5,24.3z M8.5,19.3
		c-1.1,0-2,0.9-2,2c0,1.1,0.9,2,2,2c1.1,0,2-0.9,2-2C10.6,20.2,9.7,19.3,8.5,19.3z"/>
</g>
<g>
	<rect fill="none" width="29.1" height="30"/>
</g>
</svg>
