<?xml version="1.0" encoding="utf-8"?>
<!-- Generator: Adobe Illustrator 19.1.0, SVG Export Plug-In . SVG Version: 6.00 Build 0)  -->
<svg version="1.1" id="icons" xmlns="http://www.w3.org/2000/svg" xmlns:xlink="http://www.w3.org/1999/xlink" x="0px" y="0px"
	 viewBox="0 0 24 21" style="enable-background:new 0 0 24 21;" xml:space="preserve">
<style type="text/css">
	.st0{fill:#231F20;}
</style>
<g>
	<g>
		<path class="st0" d="M7.5,20.9c-0.1,0-0.1,0-0.2,0c-0.2-0.1-0.3-0.3-0.3-0.5v-3.5H0.6c-0.3,0-0.5-0.2-0.5-0.5V0.6
			c0-0.3,0.2-0.5,0.5-0.5h22.8c0.3,0,0.5,0.2,0.5,0.5v15.8c0,0.3-0.2,0.5-0.5,0.5H11.7l-3.8,3.8C7.8,20.8,7.7,20.9,7.5,20.9z
			 M1.1,15.9h6.4c0.3,0,0.5,0.2,0.5,0.5v2.8l3.1-3.1c0.1-0.1,0.2-0.1,0.3-0.1h11.4V1.1H1.1V15.9z"/>
	</g>
	<g>
		<path class="st0" d="M14.5,6H5.6C5.3,6,5.1,5.8,5.1,5.6c0-0.3,0.2-0.5,0.5-0.5h8.9c0.3,0,0.5,0.2,0.5,0.5C15,5.8,14.7,6,14.5,6z"
			/>
	</g>
	<g>
		<path class="st0" d="M18.4,9H5.6C5.3,9,5.1,8.8,5.1,8.5C5.1,8.2,5.3,8,5.6,8h12.9c0.3,0,0.5,0.2,0.5,0.5C18.9,8.8,18.7,9,18.4,9z"
			/>
	</g>
	<g>
		<path class="st0" d="M18.4,12H5.6c-0.3,0-0.5-0.2-0.5-0.5S5.3,11,5.6,11h12.9c0.3,0,0.5,0.2,0.5,0.5S18.7,12,18.4,12z"/>
	</g>
</g>
</svg>
