<?xml version="1.0" encoding="utf-8"?>
<!-- Generator: Adobe Illustrator 19.1.0, SVG Export Plug-In . SVG Version: 6.00 Build 0)  -->
<svg version="1.1" id="icons" xmlns="http://www.w3.org/2000/svg" xmlns:xlink="http://www.w3.org/1999/xlink" x="0px" y="0px"
	 viewBox="0 0 24 21.3" style="enable-background:new 0 0 24 21.3;" xml:space="preserve">
<style type="text/css">
	.st0{fill:#231F20;}
</style>
<g>
	<g>
		<path class="st0" d="M18.9,20.2h-6.4c-1.8,0-2.7-0.2-4-0.5c-0.8-0.2-1.7-0.3-3-0.5c-0.2,0-0.4-0.2-0.4-0.5v-8.4
			c0-0.3,0.2-0.5,0.5-0.5c2.1,0,5.9-4.2,5.9-7.9c0-0.9,0.6-1.7,1.4-1.8c0.9-0.1,2,0.4,2.5,2.4c0.4,1.4-0.3,3.7-0.7,4.9h7.2
			c1.1,0,2,0.9,2,2c0,0.8-0.5,1.9-1.3,2.3c0.2,0.3,0.4,0.7,0.4,1.1c0,0.9-0.6,1.6-1.3,1.9c0.2,0.3,0.3,0.7,0.3,1.1
			c0,0.9-0.6,1.6-1.3,1.9c0.2,0.3,0.3,0.7,0.3,1.1C20.9,19.7,20.2,20.2,18.9,20.2z M6.1,18.3c1.1,0.2,1.9,0.3,2.6,0.5
			c1.2,0.3,2.1,0.4,3.8,0.4h6.4c1,0,1-0.3,1-0.5c0-0.5-0.4-1-1-1c-0.3,0-0.5-0.2-0.5-0.5s0.2-0.5,0.5-0.5h1c0.5,0,1-0.4,1-1
			s-0.4-1-1-1c-0.3,0-0.5-0.2-0.5-0.5c0-0.3,0.2-0.5,0.5-0.5h1c0.5,0,1-0.4,1-1c0-0.5-0.4-1-1-1c-0.3,0-0.5-0.2-0.5-0.5
			s0.2-0.5,0.5-0.5h1c0.5,0,1-0.9,1-1.5c0-0.5-0.4-1-1-1H14c-0.2,0-0.3-0.1-0.4-0.2c-0.1-0.1-0.1-0.3,0-0.5c0.4-0.9,1.3-3.6,1-4.9
			c-0.4-1.3-1-1.7-1.4-1.6c-0.3,0-0.6,0.4-0.6,0.8c0,3.9-3.7,8.3-6.4,8.8V18.3z"/>
	</g>
	<g>
		<path class="st0" d="M5.6,21.2H0.6c-0.3,0-0.5-0.2-0.5-0.5V8.8c0-0.3,0.2-0.5,0.5-0.5h4.9c0.3,0,0.5,0.2,0.5,0.5v11.8
			C6.1,21,5.9,21.2,5.6,21.2z M1.1,20.2h3.9V9.3H1.1V20.2z"/>
	</g>
	<g>
		<g>
			<path class="st0" d="M3.6,18.2c-0.3,0-0.5,0.2-0.5,0.5c0,0.3,0.2,0.5,0.5,0.5s0.5-0.2,0.5-0.5C4.1,18.4,3.9,18.2,3.6,18.2
				L3.6,18.2z"/>
		</g>
	</g>
</g>
</svg>
