<?xml version="1.0" encoding="utf-8"?>
<!-- Generator: Adobe Illustrator 18.1.1, SVG Export Plug-In . SVG Version: 6.00 Build 0)  -->
<svg version="1.1" id="Layer_1" xmlns="http://www.w3.org/2000/svg" xmlns:xlink="http://www.w3.org/1999/xlink" x="0px" y="0px"
	 viewBox="0 0 29.8 29.8" enable-background="new 0 0 29.8 29.8" xml:space="preserve">
<g>
	<path fill="#231F20" d="M5.6,29.8C5.6,29.8,5.6,29.8,5.6,29.8c-0.7,0-1.5-0.1-2.2-0.4c-0.2-0.1-0.3-0.2-0.3-0.4
		c0-0.2,0-0.3,0.2-0.5L6,26.3V24H3.5l-2.3,2.6c-0.1,0.1-0.3,0.2-0.5,0.2c-0.2,0-0.3-0.1-0.4-0.3C-0.4,24.3,0,22,1.6,20.4
		c1.5-1.5,3.8-2,5.8-1.3L19,7.4c-0.7-2-0.2-4.2,1.3-5.8c1.6-1.6,4-2,6.1-1.2c0.2,0.1,0.3,0.2,0.3,0.4c0,0.2,0,0.3-0.2,0.5L24,3.5V6
		h2.3l2.3-2.7c0.1-0.1,0.3-0.2,0.5-0.2c0.2,0,0.3,0.1,0.4,0.3c0.9,2.1,0.4,4.4-1.2,6c-1.5,1.5-3.8,2-5.8,1.3L10.8,22.4
		c0.7,2,0.2,4.3-1.3,5.8C8.5,29.2,7.1,29.8,5.6,29.8z M4.7,28.7c1.5,0.3,3-0.1,4.1-1.2c1.3-1.3,1.7-3.2,0.9-5
		c-0.1-0.2,0-0.4,0.1-0.5L22,9.8c0.1-0.1,0.4-0.2,0.5-0.1c1.7,0.7,3.7,0.3,5-1c1.1-1.1,1.5-2.6,1.2-4.1l-1.8,2.2
		C26.8,6.9,26.6,7,26.5,7h-3C23.2,7,23,6.8,23,6.5V3.3c0-0.1,0.1-0.3,0.2-0.4l2.1-1.8c-1.5-0.3-3.1,0.1-4.2,1.2
		c-1.3,1.3-1.7,3.3-1,5c0.1,0.2,0,0.4-0.1,0.5L7.9,20c-0.1,0.1-0.4,0.2-0.5,0.1c-1.7-0.7-3.7-0.3-5,1c-1.1,1.1-1.6,2.7-1.2,4.2
		l1.8-2.1C3,23.1,3.2,23,3.3,23h3.2C6.8,23,7,23.2,7,23.5v3c0,0.1-0.1,0.3-0.2,0.4L4.7,28.7z"/>
</g>
<g>
	<path fill="#231F20" d="M11.9,15.3l-4.5-4.5c-2,0.7-4.3,0.2-5.8-1.3c-1.6-1.6-2.1-4-1.2-6c0.1-0.2,0.2-0.3,0.4-0.3
		c0.2,0,0.3,0,0.5,0.2L3.5,6H6V3.5L3.3,1.3C3.2,1.2,3.1,1,3.2,0.8s0.1-0.3,0.3-0.4c2.1-0.9,4.4-0.4,6,1.2c1.5,1.5,2,3.8,1.3,5.8
		l4.5,4.5l-0.7,0.7L9.8,7.9C9.7,7.7,9.6,7.5,9.7,7.3c0.7-1.7,0.3-3.7-1-5C7.6,1.2,6.1,0.8,4.7,1.1l2.1,1.8C6.9,3,7,3.2,7,3.3v3.2
		C7,6.8,6.8,7,6.5,7H3.3C3.2,7,3,6.9,2.9,6.8L1.1,4.7c-0.3,1.5,0.1,3,1.2,4.1c1.3,1.3,3.3,1.7,5,0.9c0.2-0.1,0.4,0,0.5,0.1l4.7,4.7
		L11.9,15.3z"/>
</g>
<g>
	<path fill="#231F20" d="M24.3,29.8c-1.4,0-2.8-0.6-3.9-1.6c-1.5-1.5-2-3.8-1.3-5.8l-4.5-4.5l0.7-0.7L20,22c0.1,0.1,0.2,0.4,0.1,0.5
		c-0.7,1.7-0.3,3.7,1,5c1.1,1.1,2.7,1.6,4.2,1.2l-2.1-1.8c-0.1-0.1-0.2-0.2-0.2-0.4v-3c0-0.3,0.2-0.5,0.5-0.5h3
		c0.1,0,0.3,0.1,0.4,0.2l1.8,2.1c0.3-1.5-0.1-3.1-1.2-4.2c-1.3-1.3-3.3-1.7-5-1c-0.2,0.1-0.4,0-0.5-0.1l-4.7-4.7l0.7-0.7l4.5,4.5
		c2-0.7,4.2-0.2,5.8,1.3c1.6,1.6,2.1,4,1.2,6.1c-0.1,0.2-0.2,0.3-0.4,0.3c-0.2,0-0.3,0-0.5-0.2L26.3,24H24v2.3l2.6,2.3
		c0.1,0.1,0.2,0.3,0.2,0.5c0,0.2-0.1,0.3-0.3,0.4C25.7,29.7,25,29.8,24.3,29.8z"/>
</g>
<g>
	<rect y="0" fill="none" width="29.8" height="29.8"/>
</g>
</svg>
