<?xml version="1.0" encoding="utf-8"?>
<!-- Generator: Adobe Illustrator 19.1.0, SVG Export Plug-In . SVG Version: 6.00 Build 0)  -->
<svg version="1.1" id="Layer_1" xmlns="http://www.w3.org/2000/svg" xmlns:xlink="http://www.w3.org/1999/xlink" x="0px" y="0px"
	 viewBox="0 0 52.7 41" style="enable-background:new 0 0 52.7 41;" xml:space="preserve">
<g>
	<path d="M17.6,41c-5.6,0-11-1.6-15.8-4.6L0,35.2l2.2,0.3c0.8,0.1,1.6,0.1,2.4,0.1c4,0,7.9-1.2,11.2-3.4c-4-0.6-7.3-3.4-8.5-7.3
		l-0.3-0.8l0.8,0.2c0.8,0.1,1.5,0.2,2.3,0.2c-3.8-1.6-6.4-5.5-6.4-9.8l0-1l0.7,0.4c0.8,0.5,1.7,0.8,2.6,1c-2.1-2-3.3-4.8-3.3-7.7
		c0-1.9,0.5-3.7,1.4-5.3l0.4-0.6L5.9,2c4.9,6,12.1,9.8,19.8,10.3c-0.1-0.6-0.1-1.2-0.1-1.8C25.6,4.8,30.4,0,36.2,0
		c2.8,0,5.6,1.1,7.5,3.1c2.1-0.4,4.1-1.2,6-2.3l1.1-0.7l-0.4,1.3c-0.6,1.8-1.6,3.4-2.9,4.6c1.2-0.3,2.5-0.7,3.6-1.2l1.6-0.7l-1,1.4
		c-1.3,2-3,3.8-4.9,5.2c0,0.4,0,0.7,0,1.1c0,7.1-2.7,14.3-7.5,19.7C35.5,35.8,28.6,41,17.6,41z M4.2,36.6c4.1,2.2,8.7,3.4,13.4,3.4
		c13.9,0,28.3-10.6,28.3-28.3c0-0.4,0-0.9,0-1.3l0-0.3l0.2-0.2c1.5-1.1,2.8-2.3,3.9-3.7c-1.4,0.5-2.8,0.8-4.3,1l-2.3,0.3l2-1.2
		c1.6-1,2.9-2.4,3.7-4.1c-1.7,0.9-3.5,1.5-5.3,1.8l-0.3,0.1L43.2,4c-1.8-1.9-4.4-3-7-3c-5.3,0-9.6,4.3-9.6,9.6
		c0,0.7,0.1,1.5,0.2,2.2l0.2,0.6l-0.7,0C18.3,13,10.8,9.3,5.6,3.2C5,4.5,4.7,6,4.7,7.4c0,3.2,1.6,6.2,4.3,8l1.5,1l-1.7-0.1
		c-1.4,0-2.8-0.4-4-0.9c0.3,4.3,3.4,7.9,7.7,8.7l2.1,0.4l-2,0.6c-1.3,0.3-2.6,0.5-3.9,0.3c1.5,3.5,4.9,5.8,8.7,5.9l1.4,0l-1.1,0.9
		C13.6,35.2,9,36.7,4.2,36.6z"/>
</g>
</svg>
