<?xml version="1.0" encoding="utf-8"?>
<!-- Generator: Adobe Illustrator 18.1.1, SVG Export Plug-In . SVG Version: 6.00 Build 0)  -->
<svg version="1.1" id="Layer_1" xmlns="http://www.w3.org/2000/svg" xmlns:xlink="http://www.w3.org/1999/xlink" x="0px" y="0px"
	 viewBox="0 0 28.7 24.7" enable-background="new 0 0 28.7 24.7" xml:space="preserve">
<g>
	<path d="M5.1,17.7c-0.6,0-2.5-0.1-3.8-1.3c-0.9-0.8-1.3-2-1.3-3.5C0,11.3,0.7,9.9,1.9,9c1-0.8,2.3-1.2,3.6-1.1C6,3.4,9.8,0,14.4,0
		c3.3,0,6.4,1.9,7.9,4.8c1.7,0,3.2,0.7,4.4,1.8c1.3,1.2,2,2.9,2,4.7c0,5.7-5.8,6.3-5.9,6.3l-1.9,0c-0.3,0-0.5-0.2-0.5-0.5
		s0.2-0.5,0.5-0.5h1.8c0.2,0,4.9-0.5,4.9-5.3c0-1.5-0.6-2.9-1.7-4c-1.1-1-2.5-1.6-4-1.5l-0.3,0l-0.1-0.3C20.2,2.8,17.4,1,14.4,1
		c-4.2,0-7.7,3.3-7.9,7.5l0,0.6L5.9,8.9C4.7,8.7,3.4,9,2.5,9.7C1.5,10.5,1,11.6,1,12.9C1,14,1.3,15,2,15.6c1.3,1.2,3.2,1.1,3.3,1.1
		l2.4,0c0.3,0,0.5,0.2,0.5,0.5S8,17.7,7.7,17.7H5.3C5.3,17.7,5.2,17.7,5.1,17.7z"/>
</g>
<g>
	<path d="M14.5,24.7c-0.3,0-0.5-0.2-0.5-0.5V11.5c0-0.3,0.2-0.5,0.5-0.5s0.5,0.2,0.5,0.5v12.7C15,24.4,14.8,24.7,14.5,24.7z"/>
</g>
<g>
	<path d="M18.5,16c-0.1,0-0.3,0-0.4-0.1l-3.6-3.6l-3.6,3.6c-0.2,0.2-0.5,0.2-0.7,0s-0.2-0.5,0-0.7l4-4c0.2-0.2,0.5-0.2,0.7,0l4,4
		c0.2,0.2,0.2,0.5,0,0.7C18.8,15.9,18.6,16,18.5,16z"/>
</g>
<g>
	<rect y="0" fill="none" width="28.7" height="24.7"/>
</g>
</svg>
