<?xml version="1.0" encoding="utf-8"?>
<!-- Generator: Adobe Illustrator 19.1.0, SVG Export Plug-In . SVG Version: 6.00 Build 0)  -->
<svg version="1.1" id="icons" xmlns="http://www.w3.org/2000/svg" xmlns:xlink="http://www.w3.org/1999/xlink" x="0px" y="0px"
	 viewBox="0 0 24 21" style="enable-background:new 0 0 24 21;" xml:space="preserve">
<style type="text/css">
	.st0{fill:#231F20;}
</style>
<g>
	<g>
		<path class="st0" d="M22.4,20.9H1.6c-0.3,0-0.5-0.2-0.5-0.5V15H0.6c-0.3,0-0.5-0.2-0.5-0.5V6.5c0-1.4,1.1-2.5,2.5-2.5h18.8
			c1.4,0,2.5,1.1,2.5,2.5v7.9c0,0.3-0.2,0.5-0.5,0.5h-0.5v5.4C22.9,20.7,22.7,20.9,22.4,20.9z M2.1,19.9h19.8v-5.4
			c0-0.3,0.2-0.5,0.5-0.5h0.5V6.5c0-0.8-0.7-1.5-1.5-1.5H2.6c-0.8,0-1.5,0.7-1.5,1.5V14h0.5c0.3,0,0.5,0.2,0.5,0.5V19.9z"/>
	</g>
	<g>
		<path class="st0" d="M14.5,15.9h-5c-0.3,0-0.5-0.2-0.5-0.5v-3C9,12.2,9.3,12,9.5,12h5c0.3,0,0.5,0.2,0.5,0.5v3
			C15,15.7,14.7,15.9,14.5,15.9z M10,15h4v-2h-4V15z"/>
	</g>
	<g>
		<path class="st0" d="M16.5,5.1H7.5c-0.3,0-0.5-0.2-0.5-0.5v-1c0-1.9,1.6-3.5,3.5-3.5h3c1.9,0,3.5,1.6,3.5,3.5v1
			C17,4.8,16.7,5.1,16.5,5.1z M8,4.1H16V3.6c0-1.4-1.1-2.5-2.5-2.5h-3C9.2,1.1,8,2.2,8,3.6V4.1z"/>
	</g>
	<g>
		<path class="st0" d="M9.5,15H1.6c-0.3,0-0.5-0.2-0.5-0.5S1.3,14,1.6,14h7.9c0.3,0,0.5,0.2,0.5,0.5S9.8,15,9.5,15z"/>
	</g>
	<g>
		<path class="st0" d="M22.4,15h-7.9c-0.3,0-0.5-0.2-0.5-0.5s0.2-0.5,0.5-0.5h7.9c0.3,0,0.5,0.2,0.5,0.5S22.7,15,22.4,15z"/>
	</g>
</g>
</svg>
