<?xml version="1.0" encoding="utf-8"?>
<!-- Generator: Adobe Illustrator 18.1.1, SVG Export Plug-In . SVG Version: 6.00 Build 0)  -->
<svg version="1.1" id="Layer_1" xmlns="http://www.w3.org/2000/svg" xmlns:xlink="http://www.w3.org/1999/xlink" x="0px" y="0px"
	 viewBox="0 0 30 23" enable-background="new 0 0 30 23" xml:space="preserve">
<g>
	<defs>
		<rect id="SVGID_1_" width="30" height="23"/>
	</defs>
	<clipPath id="SVGID_2_">
		<use xlink:href="#SVGID_1_"  overflow="visible"/>
	</clipPath>
	<g clip-path="url(#SVGID_2_)">
		<path fill="#FFFFFF" d="M26.5,23h-23C1.6,23,0,21.4,0,19.5v-16C0,1.6,1.6,0,3.5,0h23C28.4,0,30,1.6,30,3.5v16
			C30,21.4,28.4,23,26.5,23z M3.5,1C2.1,1,1,2.1,1,3.5v16C1,20.9,2.1,22,3.5,22h23c1.4,0,2.5-1.1,2.5-2.5v-16C29,2.1,27.9,1,26.5,1
			H3.5z"/>
	</g>
	<g clip-path="url(#SVGID_2_)">
		<path fill="#FFFFFF" d="M29.5,6h-29C0.2,6,0,5.8,0,5.5S0.2,5,0.5,5h29C29.8,5,30,5.2,30,5.5S29.8,6,29.5,6z"/>
	</g>
	<g clip-path="url(#SVGID_2_)">
		<circle fill="#FFFFFF" cx="4" cy="3" r="1"/>
	</g>
	<g clip-path="url(#SVGID_2_)">
		<circle fill="#FFFFFF" cx="7" cy="3" r="1"/>
	</g>
	<g clip-path="url(#SVGID_2_)">
		<circle fill="#FFFFFF" cx="10" cy="3" r="1"/>
	</g>
	<g clip-path="url(#SVGID_2_)">
		<path fill="#FFFFFF" d="M9.5,13h-5C4.2,13,4,12.8,4,12.5v-4C4,8.2,4.2,8,4.5,8h5C9.8,8,10,8.2,10,8.5v4C10,12.8,9.8,13,9.5,13z
			 M5,12h4V9H5V12z"/>
	</g>
	<g clip-path="url(#SVGID_2_)">
		<path fill="#FFFFFF" d="M17.5,13h-5c-0.3,0-0.5-0.2-0.5-0.5v-4C12,8.2,12.2,8,12.5,8h5C17.8,8,18,8.2,18,8.5v4
			C18,12.8,17.8,13,17.5,13z M13,12h4V9h-4V12z"/>
	</g>
	<g clip-path="url(#SVGID_2_)">
		<path fill="#FFFFFF" d="M25.5,13h-5c-0.3,0-0.5-0.2-0.5-0.5v-4C20,8.2,20.2,8,20.5,8h5C25.8,8,26,8.2,26,8.5v4
			C26,12.8,25.8,13,25.5,13z M21,12h4V9h-4V12z"/>
	</g>
	<g clip-path="url(#SVGID_2_)">
		<path fill="#FFFFFF" d="M9.5,20h-5C4.2,20,4,19.8,4,19.5v-4C4,15.2,4.2,15,4.5,15h5c0.3,0,0.5,0.2,0.5,0.5v4
			C10,19.8,9.8,20,9.5,20z M5,19h4v-3H5V19z"/>
	</g>
	<g clip-path="url(#SVGID_2_)">
		<path fill="#FFFFFF" d="M17.5,20h-5c-0.3,0-0.5-0.2-0.5-0.5v-4c0-0.3,0.2-0.5,0.5-0.5h5c0.3,0,0.5,0.2,0.5,0.5v4
			C18,19.8,17.8,20,17.5,20z M13,19h4v-3h-4V19z"/>
	</g>
	<g clip-path="url(#SVGID_2_)">
		<path fill="#FFFFFF" d="M25.5,20h-5c-0.3,0-0.5-0.2-0.5-0.5v-4c0-0.3,0.2-0.5,0.5-0.5h5c0.3,0,0.5,0.2,0.5,0.5v4
			C26,19.8,25.8,20,25.5,20z M21,19h4v-3h-4V19z"/>
	</g>
</g>
</svg>
